<?xml version="1.0" encoding="UTF-8" standalone="no"?><!DOCTYPE svg PUBLIC "-//W3C//DTD SVG 1.1//EN" "http://www.w3.org/Graphics/SVG/1.1/DTD/svg11.dtd"><!-- Generated by graphviz version 2.40.1 (20161225.0304)
 --><!-- Title: G Pages: 1 --><svg xmlns="http://www.w3.org/2000/svg" xmlns:xlink="http://www.w3.org/1999/xlink" width="1400pt" height="2880pt" viewBox="0.00 0.00 1399.69 2880.00">
<g id="graph0" class="graph" transform="scale(.7966 .7966) rotate(0) translate(4 3611.2)">
<title>G</title>
<polygon fill="#ffffff" stroke="transparent" points="-4,4 -4,-3611.2 1753,-3611.2 1753,4 -4,4"/>
<g id="clust1" class="cluster">
<title>cluster_main</title>
<polygon fill="none" stroke="#000000" points="472,-8 472,-2850.6 852,-2850.6 852,-8 472,-8"/>
<text text-anchor="middle" x="662" y="-2828.6" font-family="Times,serif" font-size="20.00" fill="#000000">main</text>
</g>
<g id="clust2" class="cluster">
<title>cluster___CPROVER_initialize</title>
<polygon fill="none" stroke="#000000" points="997,-2691.6 997,-3599.2 1741,-3599.2 1741,-2691.6 997,-2691.6"/>
<text text-anchor="middle" x="1369" y="-3577.2" font-family="Times,serif" font-size="20.00" fill="#000000">__CPROVER_initialize</text>
</g>
<g id="clust3" class="cluster">
<title>cluster___CPROVER__start</title>
<polygon fill="none" stroke="#000000" points="8,-2543.6 8,-3599.2 464,-3599.2 464,-2543.6 8,-2543.6"/>
<text text-anchor="middle" x="236" y="-3577.2" font-family="Times,serif" font-size="20.00" fill="#000000">__CPROVER__start</text>
</g>
<!-- Node_0_0 -->
<g id="node1" class="node">
<title>Node_0_0</title>
<path fill="none" stroke="#000000" d="M492.2287,-2774.1C492.2287,-2774.1 591.7713,-2774.1 591.7713,-2774.1 597.7713,-2774.1 603.7713,-2780.1 603.7713,-2786.1 603.7713,-2786.1 603.7713,-2798.1 603.7713,-2798.1 603.7713,-2804.1 597.7713,-2810.1 591.7713,-2810.1 591.7713,-2810.1 492.2287,-2810.1 492.2287,-2810.1 486.2287,-2810.1 480.2287,-2804.1 480.2287,-2798.1 480.2287,-2798.1 480.2287,-2786.1 480.2287,-2786.1 480.2287,-2780.1 486.2287,-2774.1 492.2287,-2774.1"/>
<text text-anchor="middle" x="542" y="-2785.5" font-family="Times,serif" font-size="22.00" fill="#000000">signed int a;</text>
</g>
<!-- Node_0_1 -->
<g id="node2" class="node">
<title>Node_0_1</title>
<path fill="none" stroke="#000000" d="M522.8573,-2626.1C522.8573,-2626.1 565.1427,-2626.1 565.1427,-2626.1 571.1427,-2626.1 577.1427,-2632.1 577.1427,-2638.1 577.1427,-2638.1 577.1427,-2650.1 577.1427,-2650.1 577.1427,-2656.1 571.1427,-2662.1 565.1427,-2662.1 565.1427,-2662.1 522.8573,-2662.1 522.8573,-2662.1 516.8573,-2662.1 510.8573,-2656.1 510.8573,-2650.1 510.8573,-2650.1 510.8573,-2638.1 510.8573,-2638.1 510.8573,-2632.1 516.8573,-2626.1 522.8573,-2626.1"/>
<text text-anchor="middle" x="544" y="-2637.5" font-family="Times,serif" font-size="22.00" fill="#000000">a = 1;</text>
</g>
<!-- Node_0_0&#45;&gt;Node_0_1 -->
<g id="edge1" class="edge">
<title>Node_0_0-&gt;Node_0_1</title>
<path fill="none" stroke="#000000" d="M542.2452,-2773.9523C542.5871,-2748.6539 543.2103,-2702.5342 543.6146,-2672.6167"/>
<polygon fill="#000000" stroke="#000000" points="547.1172,-2672.4426 543.7528,-2662.3961 540.1179,-2672.3479 547.1172,-2672.4426"/>
</g>
<!-- Node_0_2 -->
<g id="node3" class="node">
<title>Node_0_2</title>
<path fill="none" stroke="#000000" d="M499.6116,-2478.1C499.6116,-2478.1 600.3884,-2478.1 600.3884,-2478.1 606.3884,-2478.1 612.3884,-2484.1 612.3884,-2490.1 612.3884,-2490.1 612.3884,-2502.1 612.3884,-2502.1 612.3884,-2508.1 606.3884,-2514.1 600.3884,-2514.1 600.3884,-2514.1 499.6116,-2514.1 499.6116,-2514.1 493.6116,-2514.1 487.6116,-2508.1 487.6116,-2502.1 487.6116,-2502.1 487.6116,-2490.1 487.6116,-2490.1 487.6116,-2484.1 493.6116,-2478.1 499.6116,-2478.1"/>
<text text-anchor="middle" x="550" y="-2489.5" font-family="Times,serif" font-size="22.00" fill="#000000">signed int b;</text>
</g>
<!-- Node_0_1&#45;&gt;Node_0_2 -->
<g id="edge2" class="edge">
<title>Node_0_1-&gt;Node_0_2</title>
<path fill="none" stroke="#000000" d="M544.7357,-2625.9523C545.7613,-2600.6539 547.631,-2554.5342 548.8439,-2524.6167"/>
<polygon fill="#000000" stroke="#000000" points="552.3502,-2524.5297 549.2583,-2514.3961 545.356,-2524.2461 552.3502,-2524.5297"/>
</g>
<!-- Node_0_3 -->
<g id="node4" class="node">
<title>Node_0_3</title>
<path fill="none" stroke="#000000" d="M534.2402,-2366.1C534.2402,-2366.1 577.7598,-2366.1 577.7598,-2366.1 583.7598,-2366.1 589.7598,-2372.1 589.7598,-2378.1 589.7598,-2378.1 589.7598,-2390.1 589.7598,-2390.1 589.7598,-2396.1 583.7598,-2402.1 577.7598,-2402.1 577.7598,-2402.1 534.2402,-2402.1 534.2402,-2402.1 528.2402,-2402.1 522.2402,-2396.1 522.2402,-2390.1 522.2402,-2390.1 522.2402,-2378.1 522.2402,-2378.1 522.2402,-2372.1 528.2402,-2366.1 534.2402,-2366.1"/>
<text text-anchor="middle" x="556" y="-2377.5" font-family="Times,serif" font-size="22.00" fill="#000000">b = 2;</text>
</g>
<!-- Node_0_2&#45;&gt;Node_0_3 -->
<g id="edge3" class="edge">
<title>Node_0_2-&gt;Node_0_3</title>
<path fill="none" stroke="#000000" d="M550.9908,-2477.6055C551.9431,-2459.8282 553.3954,-2432.7184 554.4915,-2412.2587"/>
<polygon fill="#000000" stroke="#000000" points="557.9876,-2412.4233 555.0277,-2402.2504 550.9976,-2412.0488 557.9876,-2412.4233"/>
</g>
<!-- Node_0_4 -->
<g id="node5" class="node">
<title>Node_0_4</title>
<path fill="none" stroke="#000000" d="M497.743,-2254.1C497.743,-2254.1 630.257,-2254.1 630.257,-2254.1 636.257,-2254.1 642.257,-2260.1 642.257,-2266.1 642.257,-2266.1 642.257,-2278.1 642.257,-2278.1 642.257,-2284.1 636.257,-2290.1 630.257,-2290.1 630.257,-2290.1 497.743,-2290.1 497.743,-2290.1 491.743,-2290.1 485.743,-2284.1 485.743,-2278.1 485.743,-2278.1 485.743,-2266.1 485.743,-2266.1 485.743,-2260.1 491.743,-2254.1 497.743,-2254.1"/>
<text text-anchor="middle" x="564" y="-2265.5" font-family="Times,serif" font-size="22.00" fill="#000000">signed int error;</text>
</g>
<!-- Node_0_3&#45;&gt;Node_0_4 -->
<g id="edge4" class="edge">
<title>Node_0_3-&gt;Node_0_4</title>
<path fill="none" stroke="#000000" d="M557.321,-2365.6055C558.5908,-2347.8282 560.5273,-2320.7184 561.9887,-2300.2587"/>
<polygon fill="#000000" stroke="#000000" points="565.4821,-2300.4744 562.7035,-2290.2504 558.4999,-2299.9756 565.4821,-2300.4744"/>
</g>
<!-- Node_0_5 -->
<g id="node6" class="node">
<title>Node_0_5</title>
<path fill="none" stroke="#000000" d="M534.3716,-2142.1C534.3716,-2142.1 609.6284,-2142.1 609.6284,-2142.1 615.6284,-2142.1 621.6284,-2148.1 621.6284,-2154.1 621.6284,-2154.1 621.6284,-2166.1 621.6284,-2166.1 621.6284,-2172.1 615.6284,-2178.1 609.6284,-2178.1 609.6284,-2178.1 534.3716,-2178.1 534.3716,-2178.1 528.3716,-2178.1 522.3716,-2172.1 522.3716,-2166.1 522.3716,-2166.1 522.3716,-2154.1 522.3716,-2154.1 522.3716,-2148.1 528.3716,-2142.1 534.3716,-2142.1"/>
<text text-anchor="middle" x="572" y="-2153.5" font-family="Times,serif" font-size="22.00" fill="#000000">error = 0;</text>
</g>
<!-- Node_0_4&#45;&gt;Node_0_5 -->
<g id="edge5" class="edge">
<title>Node_0_4-&gt;Node_0_5</title>
<path fill="none" stroke="#000000" d="M565.321,-2253.6055C566.5908,-2235.8282 568.5273,-2208.7184 569.9887,-2188.2587"/>
<polygon fill="#000000" stroke="#000000" points="573.4821,-2188.4744 570.7035,-2178.2504 566.4999,-2187.9756 573.4821,-2188.4744"/>
</g>
<!-- Node_0_6 -->
<g id="node7" class="node">
<title>Node_0_6</title>
<path fill="none" stroke="#000000" d="M546.2715,-2030.1C546.2715,-2030.1 621.7285,-2030.1 621.7285,-2030.1 627.7285,-2030.1 633.7285,-2036.1 633.7285,-2042.1 633.7285,-2042.1 633.7285,-2054.1 633.7285,-2054.1 633.7285,-2060.1 627.7285,-2066.1 621.7285,-2066.1 621.7285,-2066.1 546.2715,-2066.1 546.2715,-2066.1 540.2715,-2066.1 534.2715,-2060.1 534.2715,-2054.1 534.2715,-2054.1 534.2715,-2042.1 534.2715,-2042.1 534.2715,-2036.1 540.2715,-2030.1 546.2715,-2030.1"/>
<text text-anchor="middle" x="584" y="-2041.5" font-family="Times,serif" font-size="22.00" fill="#000000">a = a + 1;</text>
</g>
<!-- Node_0_5&#45;&gt;Node_0_6 -->
<g id="edge6" class="edge">
<title>Node_0_5-&gt;Node_0_6</title>
<path fill="none" stroke="#000000" d="M573.9816,-2141.6055C575.8863,-2123.8282 578.7909,-2096.7184 580.983,-2076.2587"/>
<polygon fill="#000000" stroke="#000000" points="584.47,-2076.5664 582.0553,-2066.2504 577.5098,-2075.8206 584.47,-2076.5664"/>
</g>
<!-- Node_0_7 -->
<g id="node8" class="node">
<title>Node_0_7</title>
<path fill="none" stroke="#000000" d="M533.127,-1918.1C533.127,-1918.1 688.873,-1918.1 688.873,-1918.1 694.873,-1918.1 700.873,-1924.1 700.873,-1930.1 700.873,-1930.1 700.873,-1942.1 700.873,-1942.1 700.873,-1948.1 694.873,-1954.1 688.873,-1954.1 688.873,-1954.1 533.127,-1954.1 533.127,-1954.1 527.127,-1954.1 521.127,-1948.1 521.127,-1942.1 521.127,-1942.1 521.127,-1930.1 521.127,-1930.1 521.127,-1924.1 527.127,-1918.1 533.127,-1918.1"/>
<text text-anchor="middle" x="611" y="-1929.5" font-family="Times,serif" font-size="22.00" fill="#000000">signed int counter;</text>
</g>
<!-- Node_0_6&#45;&gt;Node_0_7 -->
<g id="edge7" class="edge">
<title>Node_0_6-&gt;Node_0_7</title>
<path fill="none" stroke="#000000" d="M588.4585,-2029.6055C592.7638,-2011.7467 599.3395,-1984.4695 604.2795,-1963.9775"/>
<polygon fill="#000000" stroke="#000000" points="607.6833,-1964.7922 606.6245,-1954.2504 600.8783,-1963.1516 607.6833,-1964.7922"/>
</g>
<!-- Node_0_8 -->
<g id="node9" class="node">
<title>Node_0_8</title>
<path fill="none" stroke="#000000" d="M581.2556,-1806.1C581.2556,-1806.1 690.7444,-1806.1 690.7444,-1806.1 696.7444,-1806.1 702.7444,-1812.1 702.7444,-1818.1 702.7444,-1818.1 702.7444,-1830.1 702.7444,-1830.1 702.7444,-1836.1 696.7444,-1842.1 690.7444,-1842.1 690.7444,-1842.1 581.2556,-1842.1 581.2556,-1842.1 575.2556,-1842.1 569.2556,-1836.1 569.2556,-1830.1 569.2556,-1830.1 569.2556,-1818.1 569.2556,-1818.1 569.2556,-1812.1 575.2556,-1806.1 581.2556,-1806.1"/>
<text text-anchor="middle" x="636" y="-1817.5" font-family="Times,serif" font-size="22.00" fill="#000000">counter = 10;</text>
</g>
<!-- Node_0_7&#45;&gt;Node_0_8 -->
<g id="edge8" class="edge">
<title>Node_0_7-&gt;Node_0_8</title>
<path fill="none" stroke="#000000" d="M615.1282,-1917.6055C619.0964,-1899.8282 625.1477,-1872.7184 629.7146,-1852.2587"/>
<polygon fill="#000000" stroke="#000000" points="633.1859,-1852.7727 631.9486,-1842.2504 626.354,-1851.2477 633.1859,-1852.7727"/>
</g>
<!-- Node_0_9 -->
<g id="node10" class="node">
<title>Node_0_9</title>
<path fill="none" stroke="#000000" d="M613.0373,-1694.1C613.0373,-1694.1 690.9627,-1694.1 690.9627,-1694.1 696.9627,-1694.1 702.9627,-1700.1 702.9627,-1706.1 702.9627,-1706.1 702.9627,-1718.1 702.9627,-1718.1 702.9627,-1724.1 696.9627,-1730.1 690.9627,-1730.1 690.9627,-1730.1 613.0373,-1730.1 613.0373,-1730.1 607.0373,-1730.1 601.0373,-1724.1 601.0373,-1718.1 601.0373,-1718.1 601.0373,-1706.1 601.0373,-1706.1 601.0373,-1700.1 607.0373,-1694.1 613.0373,-1694.1"/>
<text text-anchor="middle" x="652" y="-1705.5" font-family="Times,serif" font-size="22.00" fill="#000000">b = b + 2;</text>
</g>
<!-- Node_0_8&#45;&gt;Node_0_9 -->
<g id="edge9" class="edge">
<title>Node_0_8-&gt;Node_0_9</title>
<path fill="none" stroke="#000000" d="M638.6421,-1805.6055C641.1817,-1787.8282 645.0545,-1760.7184 647.9773,-1740.2587"/>
<polygon fill="#000000" stroke="#000000" points="651.4576,-1740.6449 649.4071,-1730.2504 644.528,-1739.6549 651.4576,-1740.6449"/>
</g>
<!-- Node_0_10 -->
<g id="node11" class="node">
<title>Node_0_10</title>
<polygon fill="none" stroke="#000000" points="652,-1618.5003 480.464,-1584.2 652,-1549.8997 823.536,-1584.2 652,-1618.5003"/>
<text text-anchor="middle" x="652" y="-1577.6" font-family="Times,serif" font-size="22.00" fill="#000000">!(counter &lt;= 10)?</text>
</g>
<!-- Node_0_9&#45;&gt;Node_0_10 -->
<g id="edge10" class="edge">
<title>Node_0_9-&gt;Node_0_10</title>
<path fill="none" stroke="#000000" d="M652,-1694.0463C652,-1677.0877 652,-1651.0278 652,-1628.5463"/>
<polygon fill="#000000" stroke="#000000" points="655.5001,-1628.5142 652,-1618.5143 648.5001,-1628.5143 655.5001,-1628.5142"/>
</g>
<!-- Node_0_13 -->
<g id="node12" class="node">
<title>Node_0_13</title>
<path fill="none" stroke="#000000" d="M773.0022,-1415.3C773.0022,-1415.3 808.9978,-1415.3 808.9978,-1415.3 814.9978,-1415.3 820.9978,-1421.3 820.9978,-1427.3 820.9978,-1427.3 820.9978,-1439.3 820.9978,-1439.3 820.9978,-1445.3 814.9978,-1451.3 808.9978,-1451.3 808.9978,-1451.3 773.0022,-1451.3 773.0022,-1451.3 767.0022,-1451.3 761.0022,-1445.3 761.0022,-1439.3 761.0022,-1439.3 761.0022,-1427.3 761.0022,-1427.3 761.0022,-1421.3 767.0022,-1415.3 773.0022,-1415.3"/>
<text text-anchor="middle" x="791" y="-1426.7" font-family="Times,serif" font-size="22.00" fill="#000000">Goto</text>
</g>
<!-- Node_0_10&#45;&gt;Node_0_13 -->
<g id="edge11" class="edge">
<title>Node_0_10-&gt;Node_0_13</title>
<path fill="none" stroke="#000000" d="M686.2855,-1556.7484C695.291,-1549.0086 704.778,-1540.3571 713,-1531.8 734.9518,-1508.9535 757.1035,-1480.323 772.1614,-1459.8268"/>
<polygon fill="#000000" stroke="#000000" points="775.1072,-1461.727 778.1592,-1451.5813 769.4464,-1457.6093 775.1072,-1461.727"/>
<text text-anchor="middle" x="764.547" y="-1494.8" font-family="Times,serif" font-size="20.00" fill="#000000">true</text>
</g>
<!-- Node_0_11 -->
<g id="node13" class="node">
<title>Node_0_11</title>
<path fill="none" stroke="#000000" d="M494.6091,-1415.3C494.6091,-1415.3 677.3909,-1415.3 677.3909,-1415.3 683.3909,-1415.3 689.3909,-1421.3 689.3909,-1427.3 689.3909,-1427.3 689.3909,-1439.3 689.3909,-1439.3 689.3909,-1445.3 683.3909,-1451.3 677.3909,-1451.3 677.3909,-1451.3 494.6091,-1451.3 494.6091,-1451.3 488.6091,-1451.3 482.6091,-1445.3 482.6091,-1439.3 482.6091,-1439.3 482.6091,-1427.3 482.6091,-1427.3 482.6091,-1421.3 488.6091,-1415.3 494.6091,-1415.3"/>
<text text-anchor="middle" x="586" y="-1426.7" font-family="Times,serif" font-size="22.00" fill="#000000">counter = counter - 1;</text>
</g>
<!-- Node_0_10&#45;&gt;Node_0_11 -->
<g id="edge12" class="edge">
<title>Node_0_10-&gt;Node_0_11</title>
<path fill="none" stroke="#000000" d="M638.1642,-1552.5664C626.2991,-1525.4383 609.3755,-1486.745 598.0558,-1460.864"/>
<polygon fill="#000000" stroke="#000000" points="601.228,-1459.3825 594.014,-1451.623 594.8146,-1462.1876 601.228,-1459.3825"/>
<text text-anchor="middle" x="638.875" y="-1494.8" font-family="Times,serif" font-size="20.00" fill="#000000">false</text>
</g>
<!-- Node_0_13&#45;&gt;Node_0_9 -->
<g id="edge13" class="edge">
<title>Node_0_13-&gt;Node_0_9</title>
<path fill="none" stroke="#000000" d="M815.4773,-1451.4478C828.9645,-1463.6749 843,-1481.1254 843,-1500.8 843,-1656.1 843,-1656.1 843,-1656.1 843,-1683.5886 769.2298,-1698.5392 713.3821,-1705.9189"/>
<polygon fill="#000000" stroke="#000000" points="712.6656,-1702.4816 703.1845,-1707.2101 713.545,-1709.4262 712.6656,-1702.4816"/>
</g>
<!-- Node_0_12 -->
<g id="node14" class="node">
<title>Node_0_12</title>
<path fill="none" stroke="#000000" d="M575.0022,-1303.3C575.0022,-1303.3 610.9978,-1303.3 610.9978,-1303.3 616.9978,-1303.3 622.9978,-1309.3 622.9978,-1315.3 622.9978,-1315.3 622.9978,-1327.3 622.9978,-1327.3 622.9978,-1333.3 616.9978,-1339.3 610.9978,-1339.3 610.9978,-1339.3 575.0022,-1339.3 575.0022,-1339.3 569.0022,-1339.3 563.0022,-1333.3 563.0022,-1327.3 563.0022,-1327.3 563.0022,-1315.3 563.0022,-1315.3 563.0022,-1309.3 569.0022,-1303.3 575.0022,-1303.3"/>
<text text-anchor="middle" x="593" y="-1314.7" font-family="Times,serif" font-size="22.00" fill="#000000">Goto</text>
</g>
<!-- Node_0_11&#45;&gt;Node_0_12 -->
<g id="edge14" class="edge">
<title>Node_0_11-&gt;Node_0_12</title>
<path fill="none" stroke="#000000" d="M587.1559,-1414.8055C588.267,-1397.0282 589.9613,-1369.9184 591.2401,-1349.4587"/>
<polygon fill="#000000" stroke="#000000" points="594.7349,-1349.6493 591.8656,-1339.4504 587.7485,-1349.2126 594.7349,-1349.6493"/>
</g>
<!-- Node_0_15 -->
<g id="node15" class="node">
<title>Node_0_15</title>
<path fill="none" stroke="#000000" d="M585.8282,-1191.3C585.8282,-1191.3 618.1718,-1191.3 618.1718,-1191.3 624.1718,-1191.3 630.1718,-1197.3 630.1718,-1203.3 630.1718,-1203.3 630.1718,-1215.3 630.1718,-1215.3 630.1718,-1221.3 624.1718,-1227.3 618.1718,-1227.3 618.1718,-1227.3 585.8282,-1227.3 585.8282,-1227.3 579.8282,-1227.3 573.8282,-1221.3 573.8282,-1215.3 573.8282,-1215.3 573.8282,-1203.3 573.8282,-1203.3 573.8282,-1197.3 579.8282,-1191.3 585.8282,-1191.3"/>
<text text-anchor="middle" x="602" y="-1202.7" font-family="Times,serif" font-size="22.00" fill="#000000">Skip</text>
</g>
<!-- Node_0_12&#45;&gt;Node_0_15 -->
<g id="edge15" class="edge">
<title>Node_0_12-&gt;Node_0_15</title>
<path fill="none" stroke="#000000" d="M594.4862,-1302.8055C595.9147,-1285.0282 598.0932,-1257.9184 599.7372,-1237.4587"/>
<polygon fill="#000000" stroke="#000000" points="603.2292,-1237.6986 600.5415,-1227.4504 596.2517,-1237.1379 603.2292,-1237.6986"/>
</g>
<!-- Node_0_16 -->
<g id="node16" class="node">
<title>Node_0_16</title>
<polygon fill="none" stroke="#000000" points="617,-1115.7003 506.5343,-1081.4 617,-1047.0997 727.4657,-1081.4 617,-1115.7003"/>
<text text-anchor="middle" x="617" y="-1074.8" font-family="Times,serif" font-size="22.00" fill="#000000">error != 0?</text>
</g>
<!-- Node_0_15&#45;&gt;Node_0_16 -->
<g id="edge16" class="edge">
<title>Node_0_15-&gt;Node_0_16</title>
<path fill="none" stroke="#000000" d="M604.1173,-1191.2463C606.1342,-1174.0488 609.2488,-1147.4919 611.9103,-1124.7985"/>
<polygon fill="#000000" stroke="#000000" points="615.4069,-1125.0308 613.0956,-1114.6912 608.4546,-1124.2154 615.4069,-1125.0308"/>
</g>
<!-- Node_0_16&#45;&gt;Node_0_10 -->
<g id="edge17" class="edge">
<title>Node_0_16-&gt;Node_0_10</title>
<path fill="none" stroke="#ff0000" d="M666.7601,-1100.2586C688.0049,-1111.8297 708,-1129.1382 708,-1153.3 708,-1500.8 708,-1500.8 708,-1500.8 708,-1517.987 699.7016,-1534.3004 689.4937,-1547.866"/>
<polygon fill="#ff0000" stroke="#ff0000" points="686.5265,-1545.9683 682.9483,-1555.9406 691.9643,-1550.3763 686.5265,-1545.9683"/>
<text text-anchor="middle" x="723.547" y="-1315.3" font-family="Times,serif" font-size="20.00" fill="#000000">true</text>
</g>
<!-- Node_0_17 -->
<g id="node17" class="node">
<title>Node_0_17</title>
<path fill="none" stroke="#000000" d="M600.8282,-912.5C600.8282,-912.5 633.1718,-912.5 633.1718,-912.5 639.1718,-912.5 645.1718,-918.5 645.1718,-924.5 645.1718,-924.5 645.1718,-936.5 645.1718,-936.5 645.1718,-942.5 639.1718,-948.5 633.1718,-948.5 633.1718,-948.5 600.8282,-948.5 600.8282,-948.5 594.8282,-948.5 588.8282,-942.5 588.8282,-936.5 588.8282,-936.5 588.8282,-924.5 588.8282,-924.5 588.8282,-918.5 594.8282,-912.5 600.8282,-912.5"/>
<text text-anchor="middle" x="617" y="-923.9" font-family="Times,serif" font-size="22.00" fill="#000000">Skip</text>
</g>
<!-- Node_0_16&#45;&gt;Node_0_17 -->
<g id="edge18" class="edge">
<title>Node_0_16-&gt;Node_0_17</title>
<path fill="none" stroke="#000000" d="M617,-1046.7805C617,-1020.2516 617,-984.0854 617,-959.1663"/>
<polygon fill="#000000" stroke="#000000" points="620.5001,-958.9101 617,-948.9101 613.5001,-958.9102 620.5001,-958.9101"/>
<text text-anchor="middle" x="635.875" y="-992" font-family="Times,serif" font-size="20.00" fill="#000000">false</text>
</g>
<!-- Node_0_18 -->
<g id="node18" class="node">
<title>Node_0_18</title>
<path fill="none" stroke="#000000" d="M600.8282,-800.5C600.8282,-800.5 633.1718,-800.5 633.1718,-800.5 639.1718,-800.5 645.1718,-806.5 645.1718,-812.5 645.1718,-812.5 645.1718,-824.5 645.1718,-824.5 645.1718,-830.5 639.1718,-836.5 633.1718,-836.5 633.1718,-836.5 600.8282,-836.5 600.8282,-836.5 594.8282,-836.5 588.8282,-830.5 588.8282,-824.5 588.8282,-824.5 588.8282,-812.5 588.8282,-812.5 588.8282,-806.5 594.8282,-800.5 600.8282,-800.5"/>
<text text-anchor="middle" x="617" y="-811.9" font-family="Times,serif" font-size="22.00" fill="#000000">Skip</text>
</g>
<!-- Node_0_17&#45;&gt;Node_0_18 -->
<g id="edge19" class="edge">
<title>Node_0_17-&gt;Node_0_18</title>
<path fill="none" stroke="#000000" d="M617,-912.0055C617,-894.2282 617,-867.1184 617,-846.6587"/>
<polygon fill="#000000" stroke="#000000" points="620.5001,-846.6503 617,-836.6504 613.5001,-846.6504 620.5001,-846.6503"/>
</g>
<!-- Node_0_19 -->
<g id="node19" class="node">
<title>Node_0_19</title>
<path fill="none" stroke="#000000" d="M583.4295,-688.5C583.4295,-688.5 650.5705,-688.5 650.5705,-688.5 656.5705,-688.5 662.5705,-694.5 662.5705,-700.5 662.5705,-700.5 662.5705,-712.5 662.5705,-712.5 662.5705,-718.5 656.5705,-724.5 650.5705,-724.5 650.5705,-724.5 583.4295,-724.5 583.4295,-724.5 577.4295,-724.5 571.4295,-718.5 571.4295,-712.5 571.4295,-712.5 571.4295,-700.5 571.4295,-700.5 571.4295,-694.5 577.4295,-688.5 583.4295,-688.5"/>
<text text-anchor="middle" x="617" y="-699.9" font-family="Times,serif" font-size="22.00" fill="#000000">return 0;</text>
</g>
<!-- Node_0_18&#45;&gt;Node_0_19 -->
<g id="edge20" class="edge">
<title>Node_0_18-&gt;Node_0_19</title>
<path fill="none" stroke="#000000" d="M617,-800.0055C617,-782.2282 617,-755.1184 617,-734.6587"/>
<polygon fill="#000000" stroke="#000000" points="620.5001,-734.6503 617,-724.6504 613.5001,-734.6504 620.5001,-734.6503"/>
</g>
<!-- Node_0_20 -->
<g id="node20" class="node">
<title>Node_0_20</title>
<path fill="none" stroke="#000000" d="M597.7933,-576.5C597.7933,-576.5 636.2067,-576.5 636.2067,-576.5 642.2067,-576.5 648.2067,-582.5 648.2067,-588.5 648.2067,-588.5 648.2067,-600.5 648.2067,-600.5 648.2067,-606.5 642.2067,-612.5 636.2067,-612.5 636.2067,-612.5 597.7933,-612.5 597.7933,-612.5 591.7933,-612.5 585.7933,-606.5 585.7933,-600.5 585.7933,-600.5 585.7933,-588.5 585.7933,-588.5 585.7933,-582.5 591.7933,-576.5 597.7933,-576.5"/>
<text text-anchor="middle" x="617" y="-587.9" font-family="Times,serif" font-size="22.00" fill="#000000">Dead</text>
</g>
<!-- Node_0_19&#45;&gt;Node_0_20 -->
<g id="edge21" class="edge">
<title>Node_0_19-&gt;Node_0_20</title>
<path fill="none" stroke="#000000" d="M617,-688.0055C617,-670.2282 617,-643.1184 617,-622.6587"/>
<polygon fill="#000000" stroke="#000000" points="620.5001,-622.6503 617,-612.6504 613.5001,-622.6504 620.5001,-622.6503"/>
</g>
<!-- Node_0_21 -->
<g id="node21" class="node">
<title>Node_0_21</title>
<path fill="none" stroke="#000000" d="M597.7933,-464.5C597.7933,-464.5 636.2067,-464.5 636.2067,-464.5 642.2067,-464.5 648.2067,-470.5 648.2067,-476.5 648.2067,-476.5 648.2067,-488.5 648.2067,-488.5 648.2067,-494.5 642.2067,-500.5 636.2067,-500.5 636.2067,-500.5 597.7933,-500.5 597.7933,-500.5 591.7933,-500.5 585.7933,-494.5 585.7933,-488.5 585.7933,-488.5 585.7933,-476.5 585.7933,-476.5 585.7933,-470.5 591.7933,-464.5 597.7933,-464.5"/>
<text text-anchor="middle" x="617" y="-475.9" font-family="Times,serif" font-size="22.00" fill="#000000">Dead</text>
</g>
<!-- Node_0_20&#45;&gt;Node_0_21 -->
<g id="edge22" class="edge">
<title>Node_0_20-&gt;Node_0_21</title>
<path fill="none" stroke="#000000" d="M617,-576.0055C617,-558.2282 617,-531.1184 617,-510.6587"/>
<polygon fill="#000000" stroke="#000000" points="620.5001,-510.6503 617,-500.6504 613.5001,-510.6504 620.5001,-510.6503"/>
</g>
<!-- Node_0_22 -->
<g id="node22" class="node">
<title>Node_0_22</title>
<path fill="none" stroke="#000000" d="M597.7933,-352.5C597.7933,-352.5 636.2067,-352.5 636.2067,-352.5 642.2067,-352.5 648.2067,-358.5 648.2067,-364.5 648.2067,-364.5 648.2067,-376.5 648.2067,-376.5 648.2067,-382.5 642.2067,-388.5 636.2067,-388.5 636.2067,-388.5 597.7933,-388.5 597.7933,-388.5 591.7933,-388.5 585.7933,-382.5 585.7933,-376.5 585.7933,-376.5 585.7933,-364.5 585.7933,-364.5 585.7933,-358.5 591.7933,-352.5 597.7933,-352.5"/>
<text text-anchor="middle" x="617" y="-363.9" font-family="Times,serif" font-size="22.00" fill="#000000">Dead</text>
</g>
<!-- Node_0_21&#45;&gt;Node_0_22 -->
<g id="edge23" class="edge">
<title>Node_0_21-&gt;Node_0_22</title>
<path fill="none" stroke="#000000" d="M617,-464.0055C617,-446.2282 617,-419.1184 617,-398.6587"/>
<polygon fill="#000000" stroke="#000000" points="620.5001,-398.6503 617,-388.6504 613.5001,-398.6504 620.5001,-398.6503"/>
</g>
<!-- Node_0_23 -->
<g id="node23" class="node">
<title>Node_0_23</title>
<path fill="none" stroke="#000000" d="M597.7933,-240.5C597.7933,-240.5 636.2067,-240.5 636.2067,-240.5 642.2067,-240.5 648.2067,-246.5 648.2067,-252.5 648.2067,-252.5 648.2067,-264.5 648.2067,-264.5 648.2067,-270.5 642.2067,-276.5 636.2067,-276.5 636.2067,-276.5 597.7933,-276.5 597.7933,-276.5 591.7933,-276.5 585.7933,-270.5 585.7933,-264.5 585.7933,-264.5 585.7933,-252.5 585.7933,-252.5 585.7933,-246.5 591.7933,-240.5 597.7933,-240.5"/>
<text text-anchor="middle" x="617" y="-251.9" font-family="Times,serif" font-size="22.00" fill="#000000">Dead</text>
</g>
<!-- Node_0_22&#45;&gt;Node_0_23 -->
<g id="edge24" class="edge">
<title>Node_0_22-&gt;Node_0_23</title>
<path fill="none" stroke="#000000" d="M617,-352.0055C617,-334.2282 617,-307.1184 617,-286.6587"/>
<polygon fill="#000000" stroke="#000000" points="620.5001,-286.6503 617,-276.6504 613.5001,-286.6504 620.5001,-286.6503"/>
</g>
<!-- Node_0_24 -->
<g id="node24" class="node">
<title>Node_0_24</title>
<path fill="none" stroke="#000000" d="M599.0022,-128.5C599.0022,-128.5 634.9978,-128.5 634.9978,-128.5 640.9978,-128.5 646.9978,-134.5 646.9978,-140.5 646.9978,-140.5 646.9978,-152.5 646.9978,-152.5 646.9978,-158.5 640.9978,-164.5 634.9978,-164.5 634.9978,-164.5 599.0022,-164.5 599.0022,-164.5 593.0022,-164.5 587.0022,-158.5 587.0022,-152.5 587.0022,-152.5 587.0022,-140.5 587.0022,-140.5 587.0022,-134.5 593.0022,-128.5 599.0022,-128.5"/>
<text text-anchor="middle" x="617" y="-139.9" font-family="Times,serif" font-size="22.00" fill="#000000">Goto</text>
</g>
<!-- Node_0_23&#45;&gt;Node_0_24 -->
<g id="edge25" class="edge">
<title>Node_0_23-&gt;Node_0_24</title>
<path fill="none" stroke="#000000" d="M617,-240.0055C617,-222.2282 617,-195.1184 617,-174.6587"/>
<polygon fill="#000000" stroke="#000000" points="620.5001,-174.6503 617,-164.6504 613.5001,-174.6504 620.5001,-174.6503"/>
</g>
<!-- Node_0_25 -->
<g id="node25" class="node">
<title>Node_0_25</title>
<path fill="none" stroke="#000000" d="M549.5066,-16.5C549.5066,-16.5 684.4934,-16.5 684.4934,-16.5 690.4934,-16.5 696.4934,-22.5 696.4934,-28.5 696.4934,-28.5 696.4934,-40.5 696.4934,-40.5 696.4934,-46.5 690.4934,-52.5 684.4934,-52.5 684.4934,-52.5 549.5066,-52.5 549.5066,-52.5 543.5066,-52.5 537.5066,-46.5 537.5066,-40.5 537.5066,-40.5 537.5066,-28.5 537.5066,-28.5 537.5066,-22.5 543.5066,-16.5 549.5066,-16.5"/>
<text text-anchor="middle" x="617" y="-27.9" font-family="Times,serif" font-size="22.00" fill="#000000">End of Function</text>
</g>
<!-- Node_0_24&#45;&gt;Node_0_25 -->
<g id="edge26" class="edge">
<title>Node_0_24-&gt;Node_0_25</title>
<path fill="none" stroke="#000000" d="M617,-128.0055C617,-110.2282 617,-83.1184 617,-62.6587"/>
<polygon fill="#000000" stroke="#000000" points="620.5001,-62.6503 617,-52.6504 613.5001,-62.6504 620.5001,-62.6503"/>
</g>
<!-- Node_1_26 -->
<g id="node26" class="node">
<title>Node_1_26</title>
<path fill="none" stroke="#000000" d="M1352.8282,-3522.7C1352.8282,-3522.7 1385.1718,-3522.7 1385.1718,-3522.7 1391.1718,-3522.7 1397.1718,-3528.7 1397.1718,-3534.7 1397.1718,-3534.7 1397.1718,-3546.7 1397.1718,-3546.7 1397.1718,-3552.7 1391.1718,-3558.7 1385.1718,-3558.7 1385.1718,-3558.7 1352.8282,-3558.7 1352.8282,-3558.7 1346.8282,-3558.7 1340.8282,-3552.7 1340.8282,-3546.7 1340.8282,-3546.7 1340.8282,-3534.7 1340.8282,-3534.7 1340.8282,-3528.7 1346.8282,-3522.7 1352.8282,-3522.7"/>
<text text-anchor="middle" x="1369" y="-3534.1" font-family="Times,serif" font-size="22.00" fill="#000000">Skip</text>
</g>
<!-- Node_1_27 -->
<g id="node27" class="node">
<title>Node_1_27</title>
<path fill="none" stroke="#000000" d="M1208.5489,-3410.7C1208.5489,-3410.7 1529.4511,-3410.7 1529.4511,-3410.7 1535.4511,-3410.7 1541.4511,-3416.7 1541.4511,-3422.7 1541.4511,-3422.7 1541.4511,-3434.7 1541.4511,-3434.7 1541.4511,-3440.7 1535.4511,-3446.7 1529.4511,-3446.7 1529.4511,-3446.7 1208.5489,-3446.7 1208.5489,-3446.7 1202.5489,-3446.7 1196.5489,-3440.7 1196.5489,-3434.7 1196.5489,-3434.7 1196.5489,-3422.7 1196.5489,-3422.7 1196.5489,-3416.7 1202.5489,-3410.7 1208.5489,-3410.7"/>
<text text-anchor="middle" x="1369" y="-3422.1" font-family="Times,serif" font-size="22.00" fill="#000000">__CPROVER_dead_object = NULL;</text>
</g>
<!-- Node_1_26&#45;&gt;Node_1_27 -->
<g id="edge27" class="edge">
<title>Node_1_26-&gt;Node_1_27</title>
<path fill="none" stroke="#000000" d="M1369,-3522.2055C1369,-3504.4282 1369,-3477.3184 1369,-3456.8587"/>
<polygon fill="#000000" stroke="#000000" points="1372.5001,-3456.8503 1369,-3446.8504 1365.5001,-3456.8504 1372.5001,-3456.8503"/>
</g>
<!-- Node_1_28 -->
<g id="node28" class="node">
<title>Node_1_28</title>
<path fill="none" stroke="#000000" d="M1211.6091,-3251.3C1211.6091,-3251.3 1526.3909,-3251.3 1526.3909,-3251.3 1532.3909,-3251.3 1538.3909,-3257.3 1538.3909,-3263.3 1538.3909,-3263.3 1538.3909,-3275.3 1538.3909,-3275.3 1538.3909,-3281.3 1532.3909,-3287.3 1526.3909,-3287.3 1526.3909,-3287.3 1211.6091,-3287.3 1211.6091,-3287.3 1205.6091,-3287.3 1199.6091,-3281.3 1199.6091,-3275.3 1199.6091,-3275.3 1199.6091,-3263.3 1199.6091,-3263.3 1199.6091,-3257.3 1205.6091,-3251.3 1211.6091,-3251.3"/>
<text text-anchor="middle" x="1369" y="-3262.7" font-family="Times,serif" font-size="22.00" fill="#000000">__CPROVER_deallocated = NULL;</text>
</g>
<!-- Node_1_27&#45;&gt;Node_1_28 -->
<g id="edge28" class="edge">
<title>Node_1_27-&gt;Node_1_28</title>
<path fill="none" stroke="#000000" d="M1369,-3410.4148C1369,-3382.7899 1369,-3330.1878 1369,-3297.5936"/>
<polygon fill="#000000" stroke="#000000" points="1372.5001,-3297.3719 1369,-3287.372 1365.5001,-3297.372 1372.5001,-3297.3719"/>
</g>
<!-- Node_1_29 -->
<g id="node29" class="node">
<title>Node_1_29</title>
<path fill="none" stroke="#000000" d="M1017.2765,-3126.9C1017.2765,-3126.9 1720.7235,-3126.9 1720.7235,-3126.9 1726.7235,-3126.9 1732.7235,-3132.9 1732.7235,-3138.9 1732.7235,-3138.9 1732.7235,-3150.9 1732.7235,-3150.9 1732.7235,-3156.9 1726.7235,-3162.9 1720.7235,-3162.9 1720.7235,-3162.9 1017.2765,-3162.9 1017.2765,-3162.9 1011.2765,-3162.9 1005.2765,-3156.9 1005.2765,-3150.9 1005.2765,-3150.9 1005.2765,-3138.9 1005.2765,-3138.9 1005.2765,-3132.9 1011.2765,-3126.9 1017.2765,-3126.9"/>
<text text-anchor="middle" x="1369" y="-3138.3" font-family="Times,serif" font-size="22.00" fill="#000000">__CPROVER_max_malloc_size = (__CPROVER_size_t)36028797018963968l;</text>
</g>
<!-- Node_1_28&#45;&gt;Node_1_29 -->
<g id="edge29" class="edge">
<title>Node_1_28-&gt;Node_1_29</title>
<path fill="none" stroke="#000000" d="M1369,-3251.2112C1369,-3230.7582 1369,-3197.195 1369,-3173.2526"/>
<polygon fill="#000000" stroke="#000000" points="1372.5001,-3173.0106 1369,-3163.0107 1365.5001,-3173.0107 1372.5001,-3173.0106"/>
</g>
<!-- Node_1_30 -->
<g id="node30" class="node">
<title>Node_1_30</title>
<path fill="none" stroke="#000000" d="M1201.213,-3002.5C1201.213,-3002.5 1536.787,-3002.5 1536.787,-3002.5 1542.787,-3002.5 1548.787,-3008.5 1548.787,-3014.5 1548.787,-3014.5 1548.787,-3026.5 1548.787,-3026.5 1548.787,-3032.5 1542.787,-3038.5 1536.787,-3038.5 1536.787,-3038.5 1201.213,-3038.5 1201.213,-3038.5 1195.213,-3038.5 1189.213,-3032.5 1189.213,-3026.5 1189.213,-3026.5 1189.213,-3014.5 1189.213,-3014.5 1189.213,-3008.5 1195.213,-3002.5 1201.213,-3002.5"/>
<text text-anchor="middle" x="1369" y="-3013.9" font-family="Times,serif" font-size="22.00" fill="#000000">__CPROVER_memory_leak = NULL;</text>
</g>
<!-- Node_1_29&#45;&gt;Node_1_30 -->
<g id="edge30" class="edge">
<title>Node_1_29-&gt;Node_1_30</title>
<path fill="none" stroke="#000000" d="M1369,-3126.8112C1369,-3106.3582 1369,-3072.795 1369,-3048.8526"/>
<polygon fill="#000000" stroke="#000000" points="1372.5001,-3048.6106 1369,-3038.6107 1365.5001,-3048.6107 1372.5001,-3048.6106"/>
</g>
<!-- Node_1_31 -->
<g id="node31" class="node">
<title>Node_1_31</title>
<path fill="none" stroke="#000000" d="M1215.8573,-2878.1C1215.8573,-2878.1 1522.1427,-2878.1 1522.1427,-2878.1 1528.1427,-2878.1 1534.1427,-2884.1 1534.1427,-2890.1 1534.1427,-2890.1 1534.1427,-2902.1 1534.1427,-2902.1 1534.1427,-2908.1 1528.1427,-2914.1 1522.1427,-2914.1 1522.1427,-2914.1 1215.8573,-2914.1 1215.8573,-2914.1 1209.8573,-2914.1 1203.8573,-2908.1 1203.8573,-2902.1 1203.8573,-2902.1 1203.8573,-2890.1 1203.8573,-2890.1 1203.8573,-2884.1 1209.8573,-2878.1 1215.8573,-2878.1"/>
<text text-anchor="middle" x="1369" y="-2889.5" font-family="Times,serif" font-size="22.00" fill="#000000">__CPROVER_rounding_mode = 0;</text>
</g>
<!-- Node_1_30&#45;&gt;Node_1_31 -->
<g id="edge31" class="edge">
<title>Node_1_30-&gt;Node_1_31</title>
<path fill="none" stroke="#000000" d="M1369,-3002.4112C1369,-2981.9582 1369,-2948.395 1369,-2924.4526"/>
<polygon fill="#000000" stroke="#000000" points="1372.5001,-2924.2106 1369,-2914.2107 1365.5001,-2924.2107 1372.5001,-2924.2106"/>
</g>
<!-- Node_1_32 -->
<g id="node32" class="node">
<title>Node_1_32</title>
<path fill="none" stroke="#000000" d="M1301.5066,-2700.1C1301.5066,-2700.1 1436.4934,-2700.1 1436.4934,-2700.1 1442.4934,-2700.1 1448.4934,-2706.1 1448.4934,-2712.1 1448.4934,-2712.1 1448.4934,-2724.1 1448.4934,-2724.1 1448.4934,-2730.1 1442.4934,-2736.1 1436.4934,-2736.1 1436.4934,-2736.1 1301.5066,-2736.1 1301.5066,-2736.1 1295.5066,-2736.1 1289.5066,-2730.1 1289.5066,-2724.1 1289.5066,-2724.1 1289.5066,-2712.1 1289.5066,-2712.1 1289.5066,-2706.1 1295.5066,-2700.1 1301.5066,-2700.1"/>
<text text-anchor="middle" x="1369" y="-2711.5" font-family="Times,serif" font-size="22.00" fill="#000000">End of Function</text>
</g>
<!-- Node_1_31&#45;&gt;Node_1_32 -->
<g id="edge32" class="edge">
<title>Node_1_31-&gt;Node_1_32</title>
<path fill="none" stroke="#000000" d="M1369,-2878.0528C1369,-2847.0016 1369,-2783.2524 1369,-2746.298"/>
<polygon fill="#000000" stroke="#000000" points="1372.5001,-2746.1949 1369,-2736.1949 1365.5001,-2746.195 1372.5001,-2746.1949"/>
</g>
<!-- Node_2_33 -->
<g id="node33" class="node">
<title>Node_2_33</title>
<path fill="none" stroke="#000000" d="M309.8282,-3522.7C309.8282,-3522.7 342.1718,-3522.7 342.1718,-3522.7 348.1718,-3522.7 354.1718,-3528.7 354.1718,-3534.7 354.1718,-3534.7 354.1718,-3546.7 354.1718,-3546.7 354.1718,-3552.7 348.1718,-3558.7 342.1718,-3558.7 342.1718,-3558.7 309.8282,-3558.7 309.8282,-3558.7 303.8282,-3558.7 297.8282,-3552.7 297.8282,-3546.7 297.8282,-3546.7 297.8282,-3534.7 297.8282,-3534.7 297.8282,-3528.7 303.8282,-3522.7 309.8282,-3522.7"/>
<text text-anchor="middle" x="326" y="-3534.1" font-family="Times,serif" font-size="22.00" fill="#000000">Skip</text>
</g>
<!-- Node_2_34 -->
<g id="node34" class="node">
<title>Node_2_34</title>
<path fill="none" stroke="#000000" d="M213.9049,-3410.7C213.9049,-3410.7 438.0951,-3410.7 438.0951,-3410.7 444.0951,-3410.7 450.0951,-3416.7 450.0951,-3422.7 450.0951,-3422.7 450.0951,-3434.7 450.0951,-3434.7 450.0951,-3440.7 444.0951,-3446.7 438.0951,-3446.7 438.0951,-3446.7 213.9049,-3446.7 213.9049,-3446.7 207.9049,-3446.7 201.9049,-3440.7 201.9049,-3434.7 201.9049,-3434.7 201.9049,-3422.7 201.9049,-3422.7 201.9049,-3416.7 207.9049,-3410.7 213.9049,-3410.7"/>
<text text-anchor="middle" x="326" y="-3422.1" font-family="Times,serif" font-size="22.00" fill="#000000">__CPROVER_initialize();</text>
</g>
<!-- Node_2_33&#45;&gt;Node_2_34 -->
<g id="edge33" class="edge">
<title>Node_2_33-&gt;Node_2_34</title>
<path fill="none" stroke="#000000" d="M326,-3522.2055C326,-3504.4282 326,-3477.3184 326,-3456.8587"/>
<polygon fill="#000000" stroke="#000000" points="329.5001,-3456.8503 326,-3446.8504 322.5001,-3456.8504 329.5001,-3456.8503"/>
</g>
<!-- Node_2_35 -->
<g id="node35" class="node">
<title>Node_2_35</title>
<path fill="none" stroke="#000000" d="M251.6808,-3238.9C251.6808,-3238.9 350.3192,-3238.9 350.3192,-3238.9 356.3192,-3238.9 362.3192,-3244.9 362.3192,-3250.9 362.3192,-3250.9 362.3192,-3287.7 362.3192,-3287.7 362.3192,-3293.7 356.3192,-3299.7 350.3192,-3299.7 350.3192,-3299.7 251.6808,-3299.7 251.6808,-3299.7 245.6808,-3299.7 239.6808,-3293.7 239.6808,-3287.7 239.6808,-3287.7 239.6808,-3250.9 239.6808,-3250.9 239.6808,-3244.9 245.6808,-3238.9 251.6808,-3238.9"/>
<text text-anchor="middle" x="301" y="-3275.9" font-family="Times,serif" font-size="22.00" fill="#000000">Assume</text>
<text text-anchor="middle" x="301" y="-3249.5" font-family="Times,serif" font-size="22.00" fill="#000000">(argc' &gt;= 0)</text>
</g>
<!-- Node_2_34&#45;&gt;Node_2_35 -->
<g id="edge34" class="edge">
<title>Node_2_34-&gt;Node_2_35</title>
<path fill="none" stroke="#000000" d="M323.1322,-3410.4148C319.3131,-3386.0641 312.4502,-3342.3062 307.3757,-3309.9515"/>
<polygon fill="#000000" stroke="#000000" points="310.8044,-3309.2234 305.7971,-3299.8865 303.8889,-3310.3081 310.8044,-3309.2234"/>
</g>
<!-- Node_1_0 -->
<g id="node41" class="node">
<title>Node_1_0</title>
<ellipse fill="none" stroke="#000000" cx="523" cy="-3355.2" rx="51.0319" ry="18"/>
<text text-anchor="middle" x="523" y="-3351" font-family="Times,serif" font-size="14.00" fill="#000000">Node_1_0</text>
</g>
<!-- Node_2_34&#45;&gt;Node_1_0 -->
<g id="edge40" class="edge">
<title>Node_2_34-&gt;Node_1_0</title>
<path fill="none" stroke="#0000ff" d="M374.4439,-3410.6257C406.1063,-3398.8126 447.1669,-3383.493 478.0935,-3371.9545"/>
<polygon fill="#0000ff" stroke="#0000ff" points="479.608,-3375.1251 487.7537,-3368.3503 477.1611,-3368.5667 479.608,-3375.1251"/>
</g>
<!-- Node_2_36 -->
<g id="node36" class="node">
<title>Node_2_36</title>
<path fill="none" stroke="#000000" d="M155.2497,-3126.9C155.2497,-3126.9 344.7503,-3126.9 344.7503,-3126.9 350.7503,-3126.9 356.7503,-3132.9 356.7503,-3138.9 356.7503,-3138.9 356.7503,-3150.9 356.7503,-3150.9 356.7503,-3156.9 350.7503,-3162.9 344.7503,-3162.9 344.7503,-3162.9 155.2497,-3162.9 155.2497,-3162.9 149.2497,-3162.9 143.2497,-3156.9 143.2497,-3150.9 143.2497,-3150.9 143.2497,-3138.9 143.2497,-3138.9 143.2497,-3132.9 149.2497,-3126.9 155.2497,-3126.9"/>
<text text-anchor="middle" x="250" y="-3138.3" font-family="Times,serif" font-size="22.00" fill="#000000">INPUT("argc", argc');</text>
</g>
<!-- Node_2_35&#45;&gt;Node_2_36 -->
<g id="edge35" class="edge">
<title>Node_2_35-&gt;Node_2_36</title>
<path fill="none" stroke="#000000" d="M288.524,-3238.8683C280.1991,-3218.562 269.3426,-3192.0807 261.2771,-3172.4073"/>
<polygon fill="#000000" stroke="#000000" points="264.4856,-3171.0064 257.4538,-3163.0814 258.0087,-3173.6617 264.4856,-3171.0064"/>
</g>
<!-- Node_2_37 -->
<g id="node37" class="node">
<title>Node_2_37</title>
<path fill="none" stroke="#000000" d="M28.261,-2990.1C28.261,-2990.1 443.739,-2990.1 443.739,-2990.1 449.739,-2990.1 455.739,-2996.1 455.739,-3002.1 455.739,-3002.1 455.739,-3038.9 455.739,-3038.9 455.739,-3044.9 449.739,-3050.9 443.739,-3050.9 443.739,-3050.9 28.261,-3050.9 28.261,-3050.9 22.261,-3050.9 16.261,-3044.9 16.261,-3038.9 16.261,-3038.9 16.261,-3002.1 16.261,-3002.1 16.261,-2996.1 22.261,-2990.1 28.261,-2990.1"/>
<text text-anchor="middle" x="236" y="-3027.1" font-family="Times,serif" font-size="22.00" fill="#000000">/* disable:bounds-check */</text>
<text text-anchor="middle" x="236" y="-3000.7" font-family="Times,serif" font-size="22.00" fill="#000000">argv'[(signed long int)argc'] = ((char *)NULL);</text>
</g>
<!-- Node_2_36&#45;&gt;Node_2_37 -->
<g id="edge36" class="edge">
<title>Node_2_36-&gt;Node_2_37</title>
<path fill="none" stroke="#000000" d="M247.9643,-3126.8112C246.0395,-3109.7081 243.083,-3083.4375 240.5906,-3061.2911"/>
<polygon fill="#000000" stroke="#000000" points="244.0438,-3060.6779 239.4473,-3051.1321 237.0877,-3061.4608 244.0438,-3060.6779"/>
</g>
<!-- Node_2_38 -->
<g id="node38" class="node">
<title>Node_2_38</title>
<path fill="none" stroke="#000000" d="M183.1979,-2878.1C183.1979,-2878.1 414.8021,-2878.1 414.8021,-2878.1 420.8021,-2878.1 426.8021,-2884.1 426.8021,-2890.1 426.8021,-2890.1 426.8021,-2902.1 426.8021,-2902.1 426.8021,-2908.1 420.8021,-2914.1 414.8021,-2914.1 414.8021,-2914.1 183.1979,-2914.1 183.1979,-2914.1 177.1979,-2914.1 171.1979,-2908.1 171.1979,-2902.1 171.1979,-2902.1 171.1979,-2890.1 171.1979,-2890.1 171.1979,-2884.1 177.1979,-2878.1 183.1979,-2878.1"/>
<text text-anchor="middle" x="299" y="-2889.5" font-family="Times,serif" font-size="22.00" fill="#000000">return'=main(argc', argv');</text>
</g>
<!-- Node_2_37&#45;&gt;Node_2_38 -->
<g id="edge37" class="edge">
<title>Node_2_37-&gt;Node_2_38</title>
<path fill="none" stroke="#000000" d="M251.4115,-2990.0683C261.7422,-2969.6693 275.2288,-2943.0387 285.2057,-2923.3382"/>
<polygon fill="#000000" stroke="#000000" points="288.3968,-2924.7839 289.7924,-2914.2814 282.1519,-2921.6213 288.3968,-2924.7839"/>
</g>
<!-- Node_2_38&#45;&gt;Node_0_0 -->
<g id="edge41" class="edge">
<title>Node_2_38-&gt;Node_0_0</title>
<path fill="none" stroke="#0000ff" d="M392.713,-2878.0865C415.0666,-2872.0933 438.6178,-2864.348 462.7333,-2853.0262"/>
<polygon fill="#0000ff" stroke="#0000ff" points="464.5468,-2856.0359 472.0021,-2848.508 461.4796,-2849.7437 464.5468,-2856.0359"/>
</g>
<!-- Node_2_39 -->
<g id="node39" class="node">
<title>Node_2_39</title>
<path fill="none" stroke="#000000" d="M174.9171,-2700.1C174.9171,-2700.1 423.0829,-2700.1 423.0829,-2700.1 429.0829,-2700.1 435.0829,-2706.1 435.0829,-2712.1 435.0829,-2712.1 435.0829,-2724.1 435.0829,-2724.1 435.0829,-2730.1 429.0829,-2736.1 423.0829,-2736.1 423.0829,-2736.1 174.9171,-2736.1 174.9171,-2736.1 168.9171,-2736.1 162.9171,-2730.1 162.9171,-2724.1 162.9171,-2724.1 162.9171,-2712.1 162.9171,-2712.1 162.9171,-2706.1 168.9171,-2700.1 174.9171,-2700.1"/>
<text text-anchor="middle" x="299" y="-2711.5" font-family="Times,serif" font-size="22.00" fill="#000000">OUTPUT("return'", return');</text>
</g>
<!-- Node_2_38&#45;&gt;Node_2_39 -->
<g id="edge38" class="edge">
<title>Node_2_38-&gt;Node_2_39</title>
<path fill="none" stroke="#000000" d="M299,-2878.0528C299,-2847.0016 299,-2783.2524 299,-2746.298"/>
<polygon fill="#000000" stroke="#000000" points="302.5001,-2746.1949 299,-2736.1949 295.5001,-2746.195 302.5001,-2746.1949"/>
</g>
<!-- Node_2_40 -->
<g id="node40" class="node">
<title>Node_2_40</title>
<path fill="none" stroke="#000000" d="M231.5066,-2552.1C231.5066,-2552.1 366.4934,-2552.1 366.4934,-2552.1 372.4934,-2552.1 378.4934,-2558.1 378.4934,-2564.1 378.4934,-2564.1 378.4934,-2576.1 378.4934,-2576.1 378.4934,-2582.1 372.4934,-2588.1 366.4934,-2588.1 366.4934,-2588.1 231.5066,-2588.1 231.5066,-2588.1 225.5066,-2588.1 219.5066,-2582.1 219.5066,-2576.1 219.5066,-2576.1 219.5066,-2564.1 219.5066,-2564.1 219.5066,-2558.1 225.5066,-2552.1 231.5066,-2552.1"/>
<text text-anchor="middle" x="299" y="-2563.5" font-family="Times,serif" font-size="22.00" fill="#000000">End of Function</text>
</g>
<!-- Node_2_39&#45;&gt;Node_2_40 -->
<g id="edge39" class="edge">
<title>Node_2_39-&gt;Node_2_40</title>
<path fill="none" stroke="#000000" d="M299,-2699.9523C299,-2674.6539 299,-2628.5342 299,-2598.6167"/>
<polygon fill="#000000" stroke="#000000" points="302.5001,-2598.3961 299,-2588.3961 295.5001,-2598.3962 302.5001,-2598.3961"/>
</g>
</g>
</svg>