<?xml version="1.0" encoding="UTF-8" standalone="no"?><!DOCTYPE svg PUBLIC "-//W3C//DTD SVG 1.1//EN" "http://www.w3.org/Graphics/SVG/1.1/DTD/svg11.dtd"><!-- Generated by graphviz version 2.40.1 (20161225.0304)
 --><!-- Title: G Pages: 1 --><svg xmlns="http://www.w3.org/2000/svg" xmlns:xlink="http://www.w3.org/1999/xlink" width="460pt" height="401pt" viewBox="0.00 0.00 460.00 401.00">
<g id="graph0" class="graph" transform="scale(1 1) rotate(0) translate(4 397)">
<title>G</title>
<polygon fill="#ffffff" stroke="transparent" points="-4,4 -4,-397 456,-397 456,4 -4,4"/>
<g id="clust1" class="cluster">
<title>cluster_main</title>
<polygon fill="none" stroke="#000000" points="8,-8 8,-385 444,-385 444,-8 8,-8"/>
<text text-anchor="middle" x="226" y="-363" font-family="Times,serif" font-size="20.00" fill="#000000">Workflow For Generated Algorithms</text>
</g>
<!-- Node_0_0 -->
<g id="node1" class="node">
<title>Node_0_0</title>
<path fill="none" stroke="#000000" d="M105.6703,-308.5C105.6703,-308.5 346.3297,-308.5 346.3297,-308.5 352.3297,-308.5 358.3297,-314.5 358.3297,-320.5 358.3297,-320.5 358.3297,-332.5 358.3297,-332.5 358.3297,-338.5 352.3297,-344.5 346.3297,-344.5 346.3297,-344.5 105.6703,-344.5 105.6703,-344.5 99.6703,-344.5 93.6703,-338.5 93.6703,-332.5 93.6703,-332.5 93.6703,-320.5 93.6703,-320.5 93.6703,-314.5 99.6703,-308.5 105.6703,-308.5"/>
<text text-anchor="middle" x="226" y="-319.9" font-family="Times,serif" font-size="22.00" fill="#000000">goto-cc main.c -o main.goto</text>
</g>
<!-- Node_0_1 -->
<g id="node2" class="node">
<title>Node_0_1</title>
<path fill="none" stroke="#000000" d="M38.0401,-235.5C38.0401,-235.5 413.9599,-235.5 413.9599,-235.5 419.9599,-235.5 425.9599,-241.5 425.9599,-247.5 425.9599,-247.5 425.9599,-259.5 425.9599,-259.5 425.9599,-265.5 419.9599,-271.5 413.9599,-271.5 413.9599,-271.5 38.0401,-271.5 38.0401,-271.5 32.0401,-271.5 26.0401,-265.5 26.0401,-259.5 26.0401,-259.5 26.0401,-247.5 26.0401,-247.5 26.0401,-241.5 32.0401,-235.5 38.0401,-235.5"/>
<text text-anchor="middle" x="226" y="-246.9" font-family="Times,serif" font-size="22.00" fill="#000000">goto-instrument --dot main.goto &gt; main.dot</text>
</g>
<!-- Node_0_0&#45;&gt;Node_0_1 -->
<g id="edge1" class="edge">
<title>Node_0_0-&gt;Node_0_1</title>
<path fill="none" stroke="#000000" d="M226,-308.4551C226,-300.3828 226,-290.6764 226,-281.6817"/>
<polygon fill="#000000" stroke="#000000" points="229.5001,-281.5903 226,-271.5904 222.5001,-281.5904 229.5001,-281.5903"/>
</g>
<!-- Node_0_2 -->
<g id="node3" class="node">
<title>Node_0_2</title>
<path fill="none" stroke="#000000" d="M64.4247,-162.5C64.4247,-162.5 387.5753,-162.5 387.5753,-162.5 393.5753,-162.5 399.5753,-168.5 399.5753,-174.5 399.5753,-174.5 399.5753,-186.5 399.5753,-186.5 399.5753,-192.5 393.5753,-198.5 387.5753,-198.5 387.5753,-198.5 64.4247,-198.5 64.4247,-198.5 58.4247,-198.5 52.4247,-192.5 52.4247,-186.5 52.4247,-186.5 52.4247,-174.5 52.4247,-174.5 52.4247,-168.5 58.4247,-162.5 64.4247,-162.5"/>
<text text-anchor="middle" x="226" y="-173.9" font-family="Times,serif" font-size="22.00" fill="#000000">main.dot is converted to graphviz.svg</text>
</g>
<!-- Node_0_1&#45;&gt;Node_0_2 -->
<g id="edge2" class="edge">
<title>Node_0_1-&gt;Node_0_2</title>
<path fill="none" stroke="#000000" d="M226,-235.4551C226,-227.3828 226,-217.6764 226,-208.6817"/>
<polygon fill="#000000" stroke="#000000" points="229.5001,-208.5903 226,-198.5904 222.5001,-208.5904 229.5001,-208.5903"/>
</g>
<!-- Node_0_3 -->
<g id="node4" class="node">
<title>Node_0_3</title>
<path fill="none" stroke="#000000" d="M28.3953,-89.5C28.3953,-89.5 423.6047,-89.5 423.6047,-89.5 429.6047,-89.5 435.6047,-95.5 435.6047,-101.5 435.6047,-101.5 435.6047,-113.5 435.6047,-113.5 435.6047,-119.5 429.6047,-125.5 423.6047,-125.5 423.6047,-125.5 28.3953,-125.5 28.3953,-125.5 22.3953,-125.5 16.3953,-119.5 16.3953,-113.5 16.3953,-113.5 16.3953,-101.5 16.3953,-101.5 16.3953,-95.5 22.3953,-89.5 28.3953,-89.5"/>
<text text-anchor="middle" x="226" y="-100.9" font-family="Times,serif" font-size="22.00" fill="#000000">graphviz.svg nodes are entered into algorithm</text>
</g>
<!-- Node_0_2&#45;&gt;Node_0_3 -->
<g id="edge3" class="edge">
<title>Node_0_2-&gt;Node_0_3</title>
<path fill="none" stroke="#000000" d="M226,-162.4551C226,-154.3828 226,-144.6764 226,-135.6817"/>
<polygon fill="#000000" stroke="#000000" points="229.5001,-135.5903 226,-125.5904 222.5001,-135.5904 229.5001,-135.5903"/>
</g>
<!-- Node_0_4 -->
<g id="node5" class="node">
<title>Node_0_4</title>
<path fill="none" stroke="#000000" d="M186.9218,-16.5C186.9218,-16.5 265.0782,-16.5 265.0782,-16.5 271.0782,-16.5 277.0782,-22.5 277.0782,-28.5 277.0782,-28.5 277.0782,-40.5 277.0782,-40.5 277.0782,-46.5 271.0782,-52.5 265.0782,-52.5 265.0782,-52.5 186.9218,-52.5 186.9218,-52.5 180.9218,-52.5 174.9218,-46.5 174.9218,-40.5 174.9218,-40.5 174.9218,-28.5 174.9218,-28.5 174.9218,-22.5 180.9218,-16.5 186.9218,-16.5"/>
<text text-anchor="middle" x="226" y="-27.9" font-family="Times,serif" font-size="22.00" fill="#000000">results.txt</text>
</g>
<!-- Node_0_3&#45;&gt;Node_0_4 -->
<g id="edge4" class="edge">
<title>Node_0_3-&gt;Node_0_4</title>
<path fill="none" stroke="#000000" d="M226,-89.4551C226,-81.3828 226,-71.6764 226,-62.6817"/>
<polygon fill="#000000" stroke="#000000" points="229.5001,-62.5903 226,-52.5904 222.5001,-62.5904 229.5001,-62.5903"/>
</g>
</g>
</svg>