<?xml version="1.0" encoding="UTF-8" standalone="no"?><!DOCTYPE svg PUBLIC "-//W3C//DTD SVG 1.1//EN" "http://www.w3.org/Graphics/SVG/1.1/DTD/svg11.dtd"><!-- Generated by graphviz version 2.40.1 (20161225.0304)
 --><!-- Title: G Pages: 1 --><svg xmlns="http://www.w3.org/2000/svg" xmlns:xlink="http://www.w3.org/1999/xlink" width="2160pt" height="2448pt" viewBox="0.00 0.00 2160.00 2447.87">
<g id="graph0" class="graph" transform="scale(.9408 .9408) rotate(0) translate(4 2598)">
<title>G</title>
<polygon fill="#ffffff" stroke="transparent" points="-4,4 -4,-2598 2292,-2598 2292,4 -4,4"/>
<g id="clust1" class="cluster">
<title>cluster_main</title>
<polygon fill="none" stroke="#000000" points="472,-1096.4 472,-1720.8 660,-1720.8 660,-1096.4 472,-1096.4"/>
<text text-anchor="middle" x="566" y="-1698.8" font-family="Times,serif" font-size="20.00" fill="#000000">main</text>
</g>
<g id="clust2" class="cluster">
<title>cluster_duffs_device</title>
<polygon fill="none" stroke="#000000" points="780,-8 780,-2586 1460,-2586 1460,-8 780,-8"/>
<text text-anchor="middle" x="1120" y="-2564" font-family="Times,serif" font-size="20.00" fill="#000000">duffs_device</text>
</g>
<g id="clust3" class="cluster">
<title>cluster___CPROVER_initialize</title>
<polygon fill="none" stroke="#000000" points="1536,-1545.9 1536,-2586 2280,-2586 2280,-1545.9 1536,-1545.9"/>
<text text-anchor="middle" x="1908" y="-2564" font-family="Times,serif" font-size="20.00" fill="#000000">__CPROVER_initialize</text>
</g>
<g id="clust4" class="cluster">
<title>cluster___CPROVER__start</title>
<polygon fill="none" stroke="#000000" points="8,-1366.1 8,-2586 464,-2586 464,-1366.1 8,-1366.1"/>
<text text-anchor="middle" x="236" y="-2564" font-family="Times,serif" font-size="20.00" fill="#000000">__CPROVER__start</text>
</g>
<g id="clust5" class="cluster">
<title>cluster_printf</title>
<polygon fill="none" stroke="#000000" points="1477,-306 1477,-391 1547,-391 1547,-306 1477,-306"/>
<text text-anchor="middle" x="1512" y="-369" font-family="Times,serif" font-size="20.00" fill="#000000">printf</text>
</g>
<!-- Node_0_0 -->
<g id="node1" class="node">
<title>Node_0_0</title>
<path fill="none" stroke="#000000" d="M491.812,-1644.3C491.812,-1644.3 640.188,-1644.3 640.188,-1644.3 646.188,-1644.3 652.188,-1650.3 652.188,-1656.3 652.188,-1656.3 652.188,-1668.3 652.188,-1668.3 652.188,-1674.3 646.188,-1680.3 640.188,-1680.3 640.188,-1680.3 491.812,-1680.3 491.812,-1680.3 485.812,-1680.3 479.812,-1674.3 479.812,-1668.3 479.812,-1668.3 479.812,-1656.3 479.812,-1656.3 479.812,-1650.3 485.812,-1644.3 491.812,-1644.3"/>
<text text-anchor="middle" x="566" y="-1655.7" font-family="Times,serif" font-size="22.00" fill="#000000">duffs_device(27);</text>
</g>
<!-- Node_0_1 -->
<g id="node2" class="node">
<title>Node_0_1</title>
<path fill="none" stroke="#000000" d="M532.4295,-1464.5C532.4295,-1464.5 599.5705,-1464.5 599.5705,-1464.5 605.5705,-1464.5 611.5705,-1470.5 611.5705,-1476.5 611.5705,-1476.5 611.5705,-1488.5 611.5705,-1488.5 611.5705,-1494.5 605.5705,-1500.5 599.5705,-1500.5 599.5705,-1500.5 532.4295,-1500.5 532.4295,-1500.5 526.4295,-1500.5 520.4295,-1494.5 520.4295,-1488.5 520.4295,-1488.5 520.4295,-1476.5 520.4295,-1476.5 520.4295,-1470.5 526.4295,-1464.5 532.4295,-1464.5"/>
<text text-anchor="middle" x="566" y="-1475.9" font-family="Times,serif" font-size="22.00" fill="#000000">return 0;</text>
</g>
<!-- Node_0_0&#45;&gt;Node_0_1 -->
<g id="edge1" class="edge">
<title>Node_0_0-&gt;Node_0_1</title>
<path fill="none" stroke="#000000" d="M566,-1644.0703C566,-1612.6239 566,-1547.9774 566,-1510.6936"/>
<polygon fill="#000000" stroke="#000000" points="569.5001,-1510.5105 566,-1500.5106 562.5001,-1510.5106 569.5001,-1510.5105"/>
</g>
<!-- Node_1_0 -->
<g id="node46" class="node">
<title>Node_1_0</title>
<ellipse fill="none" stroke="#000000" cx="719" cy="-1572.4" rx="51.0319" ry="18"/>
<text text-anchor="middle" x="719" y="-1568.2" font-family="Times,serif" font-size="14.00" fill="#000000">Node_1_0</text>
</g>
<!-- Node_0_0&#45;&gt;Node_1_0 -->
<g id="edge51" class="edge">
<title>Node_0_0-&gt;Node_1_0</title>
<path fill="none" stroke="#0000ff" d="M598.8723,-1644.1541C617.9965,-1633.4805 642.4965,-1619.6055 664,-1606.8 671.008,-1602.6267 678.4526,-1598.0616 685.526,-1593.6603"/>
<polygon fill="#0000ff" stroke="#0000ff" points="687.6065,-1596.4871 694.2262,-1588.2148 683.8927,-1590.5535 687.6065,-1596.4871"/>
</g>
<!-- Node_0_2 -->
<g id="node3" class="node">
<title>Node_0_2</title>
<path fill="none" stroke="#000000" d="M548.0022,-1284.7C548.0022,-1284.7 583.9978,-1284.7 583.9978,-1284.7 589.9978,-1284.7 595.9978,-1290.7 595.9978,-1296.7 595.9978,-1296.7 595.9978,-1308.7 595.9978,-1308.7 595.9978,-1314.7 589.9978,-1320.7 583.9978,-1320.7 583.9978,-1320.7 548.0022,-1320.7 548.0022,-1320.7 542.0022,-1320.7 536.0022,-1314.7 536.0022,-1308.7 536.0022,-1308.7 536.0022,-1296.7 536.0022,-1296.7 536.0022,-1290.7 542.0022,-1284.7 548.0022,-1284.7"/>
<text text-anchor="middle" x="566" y="-1296.1" font-family="Times,serif" font-size="22.00" fill="#000000">Goto</text>
</g>
<!-- Node_0_1&#45;&gt;Node_0_2 -->
<g id="edge2" class="edge">
<title>Node_0_1-&gt;Node_0_2</title>
<path fill="none" stroke="#000000" d="M566,-1464.2703C566,-1432.8239 566,-1368.1774 566,-1330.8936"/>
<polygon fill="#000000" stroke="#000000" points="569.5001,-1330.7105 566,-1320.7106 562.5001,-1330.7106 569.5001,-1330.7105"/>
</g>
<!-- Node_0_3 -->
<g id="node4" class="node">
<title>Node_0_3</title>
<path fill="none" stroke="#000000" d="M498.5066,-1104.9C498.5066,-1104.9 633.4934,-1104.9 633.4934,-1104.9 639.4934,-1104.9 645.4934,-1110.9 645.4934,-1116.9 645.4934,-1116.9 645.4934,-1128.9 645.4934,-1128.9 645.4934,-1134.9 639.4934,-1140.9 633.4934,-1140.9 633.4934,-1140.9 498.5066,-1140.9 498.5066,-1140.9 492.5066,-1140.9 486.5066,-1134.9 486.5066,-1128.9 486.5066,-1128.9 486.5066,-1116.9 486.5066,-1116.9 486.5066,-1110.9 492.5066,-1104.9 498.5066,-1104.9"/>
<text text-anchor="middle" x="566" y="-1116.3" font-family="Times,serif" font-size="22.00" fill="#000000">End of Function</text>
</g>
<!-- Node_0_2&#45;&gt;Node_0_3 -->
<g id="edge3" class="edge">
<title>Node_0_2-&gt;Node_0_3</title>
<path fill="none" stroke="#000000" d="M566,-1284.4703C566,-1253.0239 566,-1188.3774 566,-1151.0936"/>
<polygon fill="#000000" stroke="#000000" points="569.5001,-1150.9105 566,-1140.9106 562.5001,-1150.9106 569.5001,-1150.9105"/>
</g>
<!-- Node_1_4 -->
<g id="node5" class="node">
<title>Node_1_4</title>
<path fill="none" stroke="#000000" d="M1062.6281,-2509.5C1062.6281,-2509.5 1207.3719,-2509.5 1207.3719,-2509.5 1213.3719,-2509.5 1219.3719,-2515.5 1219.3719,-2521.5 1219.3719,-2521.5 1219.3719,-2533.5 1219.3719,-2533.5 1219.3719,-2539.5 1213.3719,-2545.5 1207.3719,-2545.5 1207.3719,-2545.5 1062.6281,-2545.5 1062.6281,-2545.5 1056.6281,-2545.5 1050.6281,-2539.5 1050.6281,-2533.5 1050.6281,-2533.5 1050.6281,-2521.5 1050.6281,-2521.5 1050.6281,-2515.5 1056.6281,-2509.5 1062.6281,-2509.5"/>
<text text-anchor="middle" x="1135" y="-2520.9" font-family="Times,serif" font-size="22.00" fill="#000000">signed int cycles;</text>
</g>
<!-- Node_1_5 -->
<g id="node6" class="node">
<title>Node_1_5</title>
<path fill="none" stroke="#000000" d="M1033.7333,-2397.5C1033.7333,-2397.5 1236.2667,-2397.5 1236.2667,-2397.5 1242.2667,-2397.5 1248.2667,-2403.5 1248.2667,-2409.5 1248.2667,-2409.5 1248.2667,-2421.5 1248.2667,-2421.5 1248.2667,-2427.5 1242.2667,-2433.5 1236.2667,-2433.5 1236.2667,-2433.5 1033.7333,-2433.5 1033.7333,-2433.5 1027.7333,-2433.5 1021.7333,-2427.5 1021.7333,-2421.5 1021.7333,-2421.5 1021.7333,-2409.5 1021.7333,-2409.5 1021.7333,-2403.5 1027.7333,-2397.5 1033.7333,-2397.5"/>
<text text-anchor="middle" x="1135" y="-2408.9" font-family="Times,serif" font-size="22.00" fill="#000000">cycles = (count + 7) / 8;</text>
</g>
<!-- Node_1_4&#45;&gt;Node_1_5 -->
<g id="edge4" class="edge">
<title>Node_1_4-&gt;Node_1_5</title>
<path fill="none" stroke="#000000" d="M1135,-2509.0055C1135,-2491.2282 1135,-2464.1184 1135,-2443.6587"/>
<polygon fill="#000000" stroke="#000000" points="1138.5001,-2443.6503 1135,-2433.6504 1131.5001,-2443.6504 1138.5001,-2443.6503"/>
</g>
<!-- Node_1_6 -->
<g id="node7" class="node">
<title>Node_1_6</title>
<path fill="none" stroke="#000000" d="M1099.9005,-2238.1C1099.9005,-2238.1 1170.0995,-2238.1 1170.0995,-2238.1 1176.0995,-2238.1 1182.0995,-2244.1 1182.0995,-2250.1 1182.0995,-2250.1 1182.0995,-2262.1 1182.0995,-2262.1 1182.0995,-2268.1 1176.0995,-2274.1 1170.0995,-2274.1 1170.0995,-2274.1 1099.9005,-2274.1 1099.9005,-2274.1 1093.9005,-2274.1 1087.9005,-2268.1 1087.9005,-2262.1 1087.9005,-2262.1 1087.9005,-2250.1 1087.9005,-2250.1 1087.9005,-2244.1 1093.9005,-2238.1 1099.9005,-2238.1"/>
<text text-anchor="middle" x="1135" y="-2249.5" font-family="Times,serif" font-size="22.00" fill="#000000">Location</text>
</g>
<!-- Node_1_5&#45;&gt;Node_1_6 -->
<g id="edge5" class="edge">
<title>Node_1_5-&gt;Node_1_6</title>
<path fill="none" stroke="#000000" d="M1135,-2397.2148C1135,-2369.5899 1135,-2316.9878 1135,-2284.3936"/>
<polygon fill="#000000" stroke="#000000" points="1138.5001,-2284.1719 1135,-2274.172 1131.5001,-2284.172 1138.5001,-2284.1719"/>
</g>
<!-- Node_1_7 -->
<g id="node8" class="node">
<title>Node_1_7</title>
<polygon fill="none" stroke="#000000" points="1135,-2150.1003 973.4381,-2115.8 1135,-2081.4997 1296.5619,-2115.8 1135,-2150.1003"/>
<text text-anchor="middle" x="1135" y="-2109.2" font-family="Times,serif" font-size="22.00" fill="#000000">count % 8 == 7?</text>
</g>
<!-- Node_1_6&#45;&gt;Node_1_7 -->
<g id="edge6" class="edge">
<title>Node_1_6-&gt;Node_1_7</title>
<path fill="none" stroke="#000000" d="M1135,-2238.0455C1135,-2218.5099 1135,-2186.6257 1135,-2160.3179"/>
<polygon fill="#000000" stroke="#000000" points="1138.5001,-2160.178 1135,-2150.1781 1131.5001,-2160.1781 1138.5001,-2160.178"/>
</g>
<!-- Node_1_17 -->
<g id="node9" class="node">
<title>Node_1_17</title>
<path fill="none" stroke="#000000" d="M1161.923,-1931C1161.923,-1931 1440.077,-1931 1440.077,-1931 1446.077,-1931 1452.077,-1937 1452.077,-1943 1452.077,-1943 1452.077,-1955 1452.077,-1955 1452.077,-1961 1446.077,-1967 1440.077,-1967 1440.077,-1967 1161.923,-1967 1161.923,-1967 1155.923,-1967 1149.923,-1961 1149.923,-1955 1149.923,-1955 1149.923,-1943 1149.923,-1943 1149.923,-1937 1155.923,-1931 1161.923,-1931"/>
<text text-anchor="middle" x="1301" y="-1942.4" font-family="Times,serif" font-size="22.00" fill="#000000">printf((const void *)"Case 7\n");</text>
</g>
<!-- Node_1_7&#45;&gt;Node_1_17 -->
<g id="edge7" class="edge">
<title>Node_1_7-&gt;Node_1_17</title>
<path fill="none" stroke="#000000" d="M1163.5364,-2087.1261C1195.1554,-2055.3547 1245.6545,-2004.6122 1275.8448,-1974.2764"/>
<polygon fill="#000000" stroke="#000000" points="1278.4856,-1976.5846 1283.0589,-1967.0276 1273.5239,-1971.6468 1278.4856,-1976.5846"/>
<text text-anchor="middle" x="1244.547" y="-2026.4" font-family="Times,serif" font-size="20.00" fill="#000000">true</text>
</g>
<!-- Node_1_8 -->
<g id="node10" class="node">
<title>Node_1_8</title>
<polygon fill="none" stroke="#000000" points="970,-1983.3003 808.4381,-1949 970,-1914.6997 1131.5619,-1949 970,-1983.3003"/>
<text text-anchor="middle" x="970" y="-1942.4" font-family="Times,serif" font-size="22.00" fill="#000000">count % 8 == 6?</text>
</g>
<!-- Node_1_7&#45;&gt;Node_1_8 -->
<g id="edge8" class="edge">
<title>Node_1_7-&gt;Node_1_8</title>
<path fill="none" stroke="#000000" d="M1106.6355,-2087.1261C1078.6896,-2058.8753 1035.9059,-2015.6249 1005.67,-1985.0592"/>
<polygon fill="#000000" stroke="#000000" points="1007.7909,-1982.2263 998.27,-1977.5784 1002.8143,-1987.1492 1007.7909,-1982.2263"/>
<text text-anchor="middle" x="1082.875" y="-2026.4" font-family="Times,serif" font-size="20.00" fill="#000000">false</text>
</g>
<!-- Node_1_18 -->
<g id="node11" class="node">
<title>Node_1_18</title>
<path fill="none" stroke="#000000" d="M1161.923,-1764.2C1161.923,-1764.2 1440.077,-1764.2 1440.077,-1764.2 1446.077,-1764.2 1452.077,-1770.2 1452.077,-1776.2 1452.077,-1776.2 1452.077,-1788.2 1452.077,-1788.2 1452.077,-1794.2 1446.077,-1800.2 1440.077,-1800.2 1440.077,-1800.2 1161.923,-1800.2 1161.923,-1800.2 1155.923,-1800.2 1149.923,-1794.2 1149.923,-1788.2 1149.923,-1788.2 1149.923,-1776.2 1149.923,-1776.2 1149.923,-1770.2 1155.923,-1764.2 1161.923,-1764.2"/>
<text text-anchor="middle" x="1301" y="-1775.6" font-family="Times,serif" font-size="22.00" fill="#000000">printf((const void *)"Case 6\n");</text>
</g>
<!-- Node_1_17&#45;&gt;Node_1_18 -->
<g id="edge9" class="edge">
<title>Node_1_17-&gt;Node_1_18</title>
<path fill="none" stroke="#000000" d="M1301,-1930.832C1301,-1901.8799 1301,-1845.0439 1301,-1810.6574"/>
<polygon fill="#000000" stroke="#000000" points="1304.5001,-1810.3456 1301,-1800.3456 1297.5001,-1810.3457 1304.5001,-1810.3456"/>
</g>
<!-- Node_4_0 -->
<g id="node47" class="node">
<title>Node_4_0</title>
<path fill="none" stroke="#000000" d="M1497,-314.5C1497,-314.5 1527,-314.5 1527,-314.5 1533,-314.5 1539,-320.5 1539,-326.5 1539,-326.5 1539,-338.5 1539,-338.5 1539,-344.5 1533,-350.5 1527,-350.5 1527,-350.5 1497,-350.5 1497,-350.5 1491,-350.5 1485,-344.5 1485,-338.5 1485,-338.5 1485,-326.5 1485,-326.5 1485,-320.5 1491,-314.5 1497,-314.5"/>
<text text-anchor="middle" x="1511.8829" y="-325.9" font-family="Times,serif" font-size="22.00" fill="#000000">?</text>
</g>
<!-- Node_1_17&#45;&gt;Node_4_0 -->
<g id="edge52" class="edge">
<title>Node_1_17-&gt;Node_4_0</title>
<path fill="none" stroke="#0000ff" d="M1392.713,-1930.9332C1451.9372,-1916.5438 1518,-1894.1044 1518,-1865.6 1518,-1865.6 1518,-1865.6 1518,-1625.3 1518,-1586.0042 1510.306,-1570.7647 1532,-1538 1549.0876,-1512.1923 1568.057,-1521.7761 1591,-1501 1614.1297,-1480.0549 1634,-1476.7038 1634,-1445.5 1634,-1445.5 1634,-1445.5 1634,-436.5 1634,-391.023 1584.2978,-361.2306 1548.3407,-345.6277"/>
<polygon fill="#0000ff" stroke="#0000ff" points="1557.3275,-347.1495 1547,-344.7837 1553.5981,-353.0735 1557.3275,-347.1495"/>
</g>
<!-- Node_1_8&#45;&gt;Node_1_18 -->
<g id="edge10" class="edge">
<title>Node_1_8-&gt;Node_1_18</title>
<path fill="none" stroke="#000000" d="M1018.1302,-1924.7458C1081.9144,-1892.6032 1193.619,-1836.3122 1255.8619,-1804.9463"/>
<polygon fill="#000000" stroke="#000000" points="1257.6882,-1807.9453 1265.0434,-1800.3195 1254.5381,-1801.6942 1257.6882,-1807.9453"/>
<text text-anchor="middle" x="1173.547" y="-1859.6" font-family="Times,serif" font-size="20.00" fill="#000000">true</text>
</g>
<!-- Node_1_9 -->
<g id="node12" class="node">
<title>Node_1_9</title>
<polygon fill="none" stroke="#000000" points="970,-1816.5003 808.4381,-1782.2 970,-1747.8997 1131.5619,-1782.2 970,-1816.5003"/>
<text text-anchor="middle" x="970" y="-1775.6" font-family="Times,serif" font-size="22.00" fill="#000000">count % 8 == 5?</text>
</g>
<!-- Node_1_8&#45;&gt;Node_1_9 -->
<g id="edge11" class="edge">
<title>Node_1_8-&gt;Node_1_9</title>
<path fill="none" stroke="#000000" d="M970,-1914.4389C970,-1889.0548 970,-1854.3508 970,-1826.8637"/>
<polygon fill="#000000" stroke="#000000" points="973.5001,-1826.7168 970,-1816.7168 966.5001,-1826.7168 973.5001,-1826.7168"/>
<text text-anchor="middle" x="988.875" y="-1859.6" font-family="Times,serif" font-size="20.00" fill="#000000">false</text>
</g>
<!-- Node_1_19 -->
<g id="node13" class="node">
<title>Node_1_19</title>
<path fill="none" stroke="#000000" d="M1161.923,-1554.4C1161.923,-1554.4 1440.077,-1554.4 1440.077,-1554.4 1446.077,-1554.4 1452.077,-1560.4 1452.077,-1566.4 1452.077,-1566.4 1452.077,-1578.4 1452.077,-1578.4 1452.077,-1584.4 1446.077,-1590.4 1440.077,-1590.4 1440.077,-1590.4 1161.923,-1590.4 1161.923,-1590.4 1155.923,-1590.4 1149.923,-1584.4 1149.923,-1578.4 1149.923,-1578.4 1149.923,-1566.4 1149.923,-1566.4 1149.923,-1560.4 1155.923,-1554.4 1161.923,-1554.4"/>
<text text-anchor="middle" x="1301" y="-1565.8" font-family="Times,serif" font-size="22.00" fill="#000000">printf((const void *)"Case 5\n");</text>
</g>
<!-- Node_1_18&#45;&gt;Node_1_19 -->
<g id="edge12" class="edge">
<title>Node_1_18-&gt;Node_1_19</title>
<path fill="none" stroke="#000000" d="M1301,-1763.9486C1301,-1727.2786 1301,-1644.4352 1301,-1600.6878"/>
<polygon fill="#000000" stroke="#000000" points="1304.5001,-1600.4597 1301,-1590.4598 1297.5001,-1600.4598 1304.5001,-1600.4597"/>
</g>
<!-- Node_1_18&#45;&gt;Node_4_0 -->
<g id="edge53" class="edge">
<title>Node_1_18-&gt;Node_4_0</title>
<path fill="none" stroke="#0000ff" d="M1319.7012,-1763.9771C1350.8542,-1733.142 1414.5365,-1668.0395 1461,-1606.8 1482.7952,-1578.0736 1478.7223,-1563.7152 1504,-1538 1525.1725,-1516.4611 1539.7841,-1522.4961 1561,-1501 1581.4849,-1480.2446 1596,-1474.662 1596,-1445.5 1596,-1445.5 1596,-1445.5 1596,-436.5 1596,-403.4891 1570.0711,-375.0567 1547.0248,-356.3049"/>
<polygon fill="#0000ff" stroke="#0000ff" points="1551.599,-365.6294 1547,-356.0842 1544.6428,-366.414 1551.599,-365.6294"/>
</g>
<!-- Node_1_9&#45;&gt;Node_1_19 -->
<g id="edge13" class="edge">
<title>Node_1_9-&gt;Node_1_19</title>
<path fill="none" stroke="#000000" d="M1010.5871,-1756.4744C1075.2505,-1715.4884 1200.738,-1635.9498 1263.4418,-1596.2057"/>
<polygon fill="#000000" stroke="#000000" points="1265.6504,-1598.9497 1272.223,-1590.6399 1261.9029,-1593.0373 1265.6504,-1598.9497"/>
<text text-anchor="middle" x="1202.547" y="-1656.3" font-family="Times,serif" font-size="20.00" fill="#000000">true</text>
</g>
<!-- Node_1_10 -->
<g id="node14" class="node">
<title>Node_1_10</title>
<polygon fill="none" stroke="#000000" points="970,-1606.7003 808.4381,-1572.4 970,-1538.0997 1131.5619,-1572.4 970,-1606.7003"/>
<text text-anchor="middle" x="970" y="-1565.8" font-family="Times,serif" font-size="22.00" fill="#000000">count % 8 == 4?</text>
</g>
<!-- Node_1_9&#45;&gt;Node_1_10 -->
<g id="edge14" class="edge">
<title>Node_1_9-&gt;Node_1_10</title>
<path fill="none" stroke="#000000" d="M970,-1747.5558C970,-1711.7652 970,-1655.7806 970,-1616.7715"/>
<polygon fill="#000000" stroke="#000000" points="973.5001,-1616.7469 970,-1606.747 966.5001,-1616.747 973.5001,-1616.7469"/>
<text text-anchor="middle" x="988.875" y="-1656.3" font-family="Times,serif" font-size="20.00" fill="#000000">false</text>
</g>
<!-- Node_1_20 -->
<g id="node15" class="node">
<title>Node_1_20</title>
<path fill="none" stroke="#000000" d="M1161.923,-1374.6C1161.923,-1374.6 1440.077,-1374.6 1440.077,-1374.6 1446.077,-1374.6 1452.077,-1380.6 1452.077,-1386.6 1452.077,-1386.6 1452.077,-1398.6 1452.077,-1398.6 1452.077,-1404.6 1446.077,-1410.6 1440.077,-1410.6 1440.077,-1410.6 1161.923,-1410.6 1161.923,-1410.6 1155.923,-1410.6 1149.923,-1404.6 1149.923,-1398.6 1149.923,-1398.6 1149.923,-1386.6 1149.923,-1386.6 1149.923,-1380.6 1155.923,-1374.6 1161.923,-1374.6"/>
<text text-anchor="middle" x="1301" y="-1386" font-family="Times,serif" font-size="22.00" fill="#000000">printf((const void *)"Case 4\n");</text>
</g>
<!-- Node_1_19&#45;&gt;Node_1_20 -->
<g id="edge15" class="edge">
<title>Node_1_19-&gt;Node_1_20</title>
<path fill="none" stroke="#000000" d="M1301,-1554.1703C1301,-1522.7239 1301,-1458.0774 1301,-1420.7936"/>
<polygon fill="#000000" stroke="#000000" points="1304.5001,-1420.6105 1301,-1410.6106 1297.5001,-1420.6106 1304.5001,-1420.6105"/>
</g>
<!-- Node_1_19&#45;&gt;Node_4_0 -->
<g id="edge54" class="edge">
<title>Node_1_19-&gt;Node_4_0</title>
<path fill="none" stroke="#0000ff" d="M1373.2728,-1554.3333C1449.287,-1534.2861 1558,-1502.1758 1558,-1482.5 1558,-1482.5 1558,-1482.5 1558,-436.5 1558,-423.8131 1555.1016,-410.9425 1550.7598,-398.7798"/>
<polygon fill="#0000ff" stroke="#0000ff" points="1553.9088,-397.2233 1546.9961,-389.1943 1547.3931,-399.7817 1553.9088,-397.2233"/>
</g>
<!-- Node_1_10&#45;&gt;Node_1_20 -->
<g id="edge16" class="edge">
<title>Node_1_10-&gt;Node_1_20</title>
<path fill="none" stroke="#000000" d="M1015.6766,-1547.5884C1080.0787,-1512.605 1196.6568,-1449.2795 1259.0008,-1415.4141"/>
<polygon fill="#000000" stroke="#000000" points="1260.6763,-1418.487 1267.793,-1410.6381 1257.335,-1412.3359 1260.6763,-1418.487"/>
<text text-anchor="middle" x="1183.547" y="-1476.5" font-family="Times,serif" font-size="20.00" fill="#000000">true</text>
</g>
<!-- Node_1_11 -->
<g id="node16" class="node">
<title>Node_1_11</title>
<polygon fill="none" stroke="#000000" points="970,-1426.9003 808.4381,-1392.6 970,-1358.2997 1131.5619,-1392.6 970,-1426.9003"/>
<text text-anchor="middle" x="970" y="-1386" font-family="Times,serif" font-size="22.00" fill="#000000">count % 8 == 3?</text>
</g>
<!-- Node_1_10&#45;&gt;Node_1_11 -->
<g id="edge17" class="edge">
<title>Node_1_10-&gt;Node_1_11</title>
<path fill="none" stroke="#000000" d="M970,-1537.7328C970,-1509.1279 970,-1468.3424 970,-1437.2877"/>
<polygon fill="#000000" stroke="#000000" points="973.5001,-1437.1608 970,-1427.1608 966.5001,-1437.1609 973.5001,-1437.1608"/>
<text text-anchor="middle" x="988.875" y="-1476.5" font-family="Times,serif" font-size="20.00" fill="#000000">false</text>
</g>
<!-- Node_1_21 -->
<g id="node17" class="node">
<title>Node_1_21</title>
<path fill="none" stroke="#000000" d="M1161.923,-1194.8C1161.923,-1194.8 1440.077,-1194.8 1440.077,-1194.8 1446.077,-1194.8 1452.077,-1200.8 1452.077,-1206.8 1452.077,-1206.8 1452.077,-1218.8 1452.077,-1218.8 1452.077,-1224.8 1446.077,-1230.8 1440.077,-1230.8 1440.077,-1230.8 1161.923,-1230.8 1161.923,-1230.8 1155.923,-1230.8 1149.923,-1224.8 1149.923,-1218.8 1149.923,-1218.8 1149.923,-1206.8 1149.923,-1206.8 1149.923,-1200.8 1155.923,-1194.8 1161.923,-1194.8"/>
<text text-anchor="middle" x="1301" y="-1206.2" font-family="Times,serif" font-size="22.00" fill="#000000">printf((const void *)"Case 3\n");</text>
</g>
<!-- Node_1_20&#45;&gt;Node_1_21 -->
<g id="edge18" class="edge">
<title>Node_1_20-&gt;Node_1_21</title>
<path fill="none" stroke="#000000" d="M1301,-1374.3703C1301,-1342.9239 1301,-1278.2774 1301,-1240.9936"/>
<polygon fill="#000000" stroke="#000000" points="1304.5001,-1240.8105 1301,-1230.8106 1297.5001,-1240.8106 1304.5001,-1240.8105"/>
</g>
<!-- Node_1_20&#45;&gt;Node_4_0 -->
<g id="edge55" class="edge">
<title>Node_1_20-&gt;Node_4_0</title>
<path fill="none" stroke="#0000ff" d="M1384.1068,-1374.5799C1446.0602,-1358.665 1520,-1333.2679 1520,-1302.7 1520,-1302.7 1520,-1302.7 1520,-436.5 1520,-425.0796 1519.5145,-412.9745 1518.7827,-401.2152"/>
<polygon fill="#0000ff" stroke="#0000ff" points="1522.258,-400.7333 1518.0822,-390.9961 1515.2744,-401.212 1522.258,-400.7333"/>
</g>
<!-- Node_1_11&#45;&gt;Node_1_21 -->
<g id="edge19" class="edge">
<title>Node_1_11-&gt;Node_1_21</title>
<path fill="none" stroke="#000000" d="M1015.6766,-1367.7884C1080.0787,-1332.805 1196.6568,-1269.4795 1259.0008,-1235.6141"/>
<polygon fill="#000000" stroke="#000000" points="1260.6763,-1238.687 1267.793,-1230.8381 1257.335,-1232.5359 1260.6763,-1238.687"/>
<text text-anchor="middle" x="1183.547" y="-1296.7" font-family="Times,serif" font-size="20.00" fill="#000000">true</text>
</g>
<!-- Node_1_12 -->
<g id="node18" class="node">
<title>Node_1_12</title>
<polygon fill="none" stroke="#000000" points="970,-1247.1003 808.4381,-1212.8 970,-1178.4997 1131.5619,-1212.8 970,-1247.1003"/>
<text text-anchor="middle" x="970" y="-1206.2" font-family="Times,serif" font-size="22.00" fill="#000000">count % 8 == 2?</text>
</g>
<!-- Node_1_11&#45;&gt;Node_1_12 -->
<g id="edge20" class="edge">
<title>Node_1_11-&gt;Node_1_12</title>
<path fill="none" stroke="#000000" d="M970,-1357.9328C970,-1329.3279 970,-1288.5424 970,-1257.4877"/>
<polygon fill="#000000" stroke="#000000" points="973.5001,-1257.3608 970,-1247.3608 966.5001,-1257.3609 973.5001,-1257.3608"/>
<text text-anchor="middle" x="988.875" y="-1296.7" font-family="Times,serif" font-size="20.00" fill="#000000">false</text>
</g>
<!-- Node_1_22 -->
<g id="node19" class="node">
<title>Node_1_22</title>
<path fill="none" stroke="#000000" d="M1161.923,-1015C1161.923,-1015 1440.077,-1015 1440.077,-1015 1446.077,-1015 1452.077,-1021 1452.077,-1027 1452.077,-1027 1452.077,-1039 1452.077,-1039 1452.077,-1045 1446.077,-1051 1440.077,-1051 1440.077,-1051 1161.923,-1051 1161.923,-1051 1155.923,-1051 1149.923,-1045 1149.923,-1039 1149.923,-1039 1149.923,-1027 1149.923,-1027 1149.923,-1021 1155.923,-1015 1161.923,-1015"/>
<text text-anchor="middle" x="1301" y="-1026.4" font-family="Times,serif" font-size="22.00" fill="#000000">printf((const void *)"Case 2\n");</text>
</g>
<!-- Node_1_21&#45;&gt;Node_1_22 -->
<g id="edge21" class="edge">
<title>Node_1_21-&gt;Node_1_22</title>
<path fill="none" stroke="#000000" d="M1301,-1194.5703C1301,-1163.1239 1301,-1098.4774 1301,-1061.1936"/>
<polygon fill="#000000" stroke="#000000" points="1304.5001,-1061.0105 1301,-1051.0106 1297.5001,-1061.0106 1304.5001,-1061.0105"/>
</g>
<!-- Node_1_21&#45;&gt;Node_4_0 -->
<g id="edge56" class="edge">
<title>Node_1_21-&gt;Node_4_0</title>
<path fill="none" stroke="#0000ff" d="M1414.3449,-1194.7717C1450.8214,-1181.9996 1482,-1160.1791 1482,-1122.9 1482,-1122.9 1482,-1122.9 1482,-436.5 1482,-424.7382 1483.7933,-412.5109 1486.503,-400.7489"/>
<polygon fill="#0000ff" stroke="#0000ff" points="1489.91,-401.5522 1488.9755,-390.9987 1483.1248,-399.8316 1489.91,-401.5522"/>
</g>
<!-- Node_1_12&#45;&gt;Node_1_22 -->
<g id="edge22" class="edge">
<title>Node_1_12-&gt;Node_1_22</title>
<path fill="none" stroke="#000000" d="M1015.6766,-1187.9884C1080.0787,-1153.005 1196.6568,-1089.6795 1259.0008,-1055.8141"/>
<polygon fill="#000000" stroke="#000000" points="1260.6763,-1058.887 1267.793,-1051.0381 1257.335,-1052.7359 1260.6763,-1058.887"/>
<text text-anchor="middle" x="1198.547" y="-1116.9" font-family="Times,serif" font-size="20.00" fill="#000000">true</text>
</g>
<!-- Node_1_13 -->
<g id="node20" class="node">
<title>Node_1_13</title>
<polygon fill="none" stroke="#000000" points="970,-1067.3003 808.4381,-1033 970,-998.6997 1131.5619,-1033 970,-1067.3003"/>
<text text-anchor="middle" x="970" y="-1026.4" font-family="Times,serif" font-size="22.00" fill="#000000">count % 8 == 1?</text>
</g>
<!-- Node_1_12&#45;&gt;Node_1_13 -->
<g id="edge23" class="edge">
<title>Node_1_12-&gt;Node_1_13</title>
<path fill="none" stroke="#000000" d="M970,-1178.1328C970,-1149.5279 970,-1108.7424 970,-1077.6877"/>
<polygon fill="#000000" stroke="#000000" points="973.5001,-1077.5608 970,-1067.5608 966.5001,-1077.5609 973.5001,-1077.5608"/>
<text text-anchor="middle" x="988.875" y="-1116.9" font-family="Times,serif" font-size="20.00" fill="#000000">false</text>
</g>
<!-- Node_1_23 -->
<g id="node21" class="node">
<title>Node_1_23</title>
<path fill="none" stroke="#000000" d="M1125.923,-864.1C1125.923,-864.1 1404.077,-864.1 1404.077,-864.1 1410.077,-864.1 1416.077,-870.1 1416.077,-876.1 1416.077,-876.1 1416.077,-888.1 1416.077,-888.1 1416.077,-894.1 1410.077,-900.1 1404.077,-900.1 1404.077,-900.1 1125.923,-900.1 1125.923,-900.1 1119.923,-900.1 1113.923,-894.1 1113.923,-888.1 1113.923,-888.1 1113.923,-876.1 1113.923,-876.1 1113.923,-870.1 1119.923,-864.1 1125.923,-864.1"/>
<text text-anchor="middle" x="1265" y="-875.5" font-family="Times,serif" font-size="22.00" fill="#000000">printf((const void *)"Case 1\n");</text>
</g>
<!-- Node_1_22&#45;&gt;Node_1_23 -->
<g id="edge24" class="edge">
<title>Node_1_22-&gt;Node_1_23</title>
<path fill="none" stroke="#000000" d="M1296.6576,-1014.7979C1290.468,-988.8533 1279.0516,-940.9997 1271.7526,-910.4045"/>
<polygon fill="#000000" stroke="#000000" points="1275.0829,-909.2814 1269.3578,-900.3666 1268.274,-910.9059 1275.0829,-909.2814"/>
</g>
<!-- Node_1_22&#45;&gt;Node_4_0 -->
<g id="edge57" class="edge">
<title>Node_1_22-&gt;Node_4_0</title>
<path fill="none" stroke="#0000ff" d="M1383.7696,-1014.8886C1415.3933,-1002.6621 1444,-982.5075 1444,-949.6 1444,-949.6 1444,-949.6 1444,-436.5 1444,-424.6026 1456.6239,-403.6504 1470.9933,-383.6549"/>
<polygon fill="#0000ff" stroke="#0000ff" points="1473.9054,-385.6026 1477.0036,-375.4708 1468.2634,-381.4591 1473.9054,-385.6026"/>
</g>
<!-- Node_1_13&#45;&gt;Node_1_23 -->
<g id="edge25" class="edge">
<title>Node_1_13-&gt;Node_1_23</title>
<path fill="none" stroke="#000000" d="M1017.3969,-1008.7553C1073.4396,-980.088 1165.9873,-932.7475 1220.6607,-904.7807"/>
<polygon fill="#000000" stroke="#000000" points="1222.4459,-907.7989 1229.7548,-900.1288 1219.258,-901.5669 1222.4459,-907.7989"/>
<text text-anchor="middle" x="1171.547" y="-943.6" font-family="Times,serif" font-size="20.00" fill="#000000">true</text>
</g>
<!-- Node_1_14 -->
<g id="node22" class="node">
<title>Node_1_14</title>
<polygon fill="none" stroke="#000000" points="992,-788.5003 808.4953,-754.2 992,-719.8997 1175.5047,-754.2 992,-788.5003"/>
<text text-anchor="middle" x="992" y="-747.6" font-family="Times,serif" font-size="22.00" fill="#000000">!(count % 8 == 0)?</text>
</g>
<!-- Node_1_13&#45;&gt;Node_1_14 -->
<g id="edge26" class="edge">
<title>Node_1_13-&gt;Node_1_14</title>
<path fill="none" stroke="#000000" d="M976.3987,-999.8537C978.8187,-984.6087 981,-966.2492 981,-949.6 981,-949.6 981,-949.6 981,-826.1 981,-816.7337 981.9234,-806.7591 983.2351,-797.3151"/>
<polygon fill="#000000" stroke="#000000" points="986.7098,-797.748 984.7856,-787.3294 979.7926,-796.6739 986.7098,-797.748"/>
<text text-anchor="middle" x="999.875" y="-876.1" font-family="Times,serif" font-size="20.00" fill="#000000">false</text>
</g>
<!-- Node_1_24 -->
<g id="node23" class="node">
<title>Node_1_24</title>
<path fill="none" stroke="#000000" d="M1205.6113,-736.2C1205.6113,-736.2 1366.3887,-736.2 1366.3887,-736.2 1372.3887,-736.2 1378.3887,-742.2 1378.3887,-748.2 1378.3887,-748.2 1378.3887,-760.2 1378.3887,-760.2 1378.3887,-766.2 1372.3887,-772.2 1366.3887,-772.2 1366.3887,-772.2 1205.6113,-772.2 1205.6113,-772.2 1199.6113,-772.2 1193.6113,-766.2 1193.6113,-760.2 1193.6113,-760.2 1193.6113,-748.2 1193.6113,-748.2 1193.6113,-742.2 1199.6113,-736.2 1205.6113,-736.2"/>
<text text-anchor="middle" x="1286" y="-747.6" font-family="Times,serif" font-size="22.00" fill="#000000">cycles = cycles - 1;</text>
</g>
<!-- Node_1_23&#45;&gt;Node_1_24 -->
<g id="edge27" class="edge">
<title>Node_1_23-&gt;Node_1_24</title>
<path fill="none" stroke="#000000" d="M1267.9642,-864.0463C1271.4465,-842.8378 1277.2659,-807.3949 1281.3504,-782.5182"/>
<polygon fill="#000000" stroke="#000000" points="1284.8163,-783.011 1282.9828,-772.576 1277.9088,-781.8768 1284.8163,-783.011"/>
</g>
<!-- Node_1_23&#45;&gt;Node_4_0 -->
<g id="edge58" class="edge">
<title>Node_1_23-&gt;Node_4_0</title>
<path fill="none" stroke="#0000ff" d="M1344.9754,-864.0042C1376.7994,-854.4184 1406,-841.4426 1406,-826.1 1406,-826.1 1406,-826.1 1406,-436.5 1406,-416.7122 1413.8526,-410.4375 1430,-399 1442.6679,-390.0271 1450.8259,-399.2115 1464,-391 1465.7183,-389.929 1467.4036,-388.7749 1469.0538,-387.5516"/>
<polygon fill="#0000ff" stroke="#0000ff" points="1471.5634,-390.0161 1477.0009,-380.923 1467.0797,-384.6405 1471.5634,-390.0161"/>
</g>
<!-- Node_1_27 -->
<g id="node24" class="node">
<title>Node_1_27</title>
<path fill="none" stroke="#000000" d="M851.8282,-240.5C851.8282,-240.5 884.1718,-240.5 884.1718,-240.5 890.1718,-240.5 896.1718,-246.5 896.1718,-252.5 896.1718,-252.5 896.1718,-264.5 896.1718,-264.5 896.1718,-270.5 890.1718,-276.5 884.1718,-276.5 884.1718,-276.5 851.8282,-276.5 851.8282,-276.5 845.8282,-276.5 839.8282,-270.5 839.8282,-264.5 839.8282,-264.5 839.8282,-252.5 839.8282,-252.5 839.8282,-246.5 845.8282,-240.5 851.8282,-240.5"/>
<text text-anchor="middle" x="868" y="-251.9" font-family="Times,serif" font-size="22.00" fill="#000000">Skip</text>
</g>
<!-- Node_1_14&#45;&gt;Node_1_27 -->
<g id="edge28" class="edge">
<title>Node_1_14-&gt;Node_1_27</title>
<path fill="none" stroke="#000000" d="M914.4661,-734.3434C863.4298,-718.9192 806,-695.9706 806,-670.8 806,-670.8 806,-670.8 806,-332.5 806,-313.126 818.641,-296.1606 832.5072,-283.3787"/>
<polygon fill="#000000" stroke="#000000" points="834.9565,-285.8888 840.2641,-276.7193 830.3968,-280.5776 834.9565,-285.8888"/>
<text text-anchor="middle" x="821.547" y="-498" font-family="Times,serif" font-size="20.00" fill="#000000">true</text>
</g>
<!-- Node_1_15 -->
<g id="node25" class="node">
<title>Node_1_15</title>
<path fill="none" stroke="#000000" d="M1104.8282,-569.4C1104.8282,-569.4 1137.1718,-569.4 1137.1718,-569.4 1143.1718,-569.4 1149.1718,-575.4 1149.1718,-581.4 1149.1718,-581.4 1149.1718,-593.4 1149.1718,-593.4 1149.1718,-599.4 1143.1718,-605.4 1137.1718,-605.4 1137.1718,-605.4 1104.8282,-605.4 1104.8282,-605.4 1098.8282,-605.4 1092.8282,-599.4 1092.8282,-593.4 1092.8282,-593.4 1092.8282,-581.4 1092.8282,-581.4 1092.8282,-575.4 1098.8282,-569.4 1104.8282,-569.4"/>
<text text-anchor="middle" x="1121" y="-580.8" font-family="Times,serif" font-size="22.00" fill="#000000">Skip</text>
</g>
<!-- Node_1_14&#45;&gt;Node_1_15 -->
<g id="edge29" class="edge">
<title>Node_1_14-&gt;Node_1_15</title>
<path fill="none" stroke="#000000" d="M1015.3609,-723.9938C1039.6794,-692.5494 1077.3885,-643.7907 1100.5616,-613.8273"/>
<polygon fill="#000000" stroke="#000000" points="1103.6231,-615.5898 1106.9723,-605.5382 1098.0859,-611.3073 1103.6231,-615.5898"/>
<text text-anchor="middle" x="1083.875" y="-664.8" font-family="Times,serif" font-size="20.00" fill="#000000">false</text>
</g>
<!-- Node_1_25 -->
<g id="node26" class="node">
<title>Node_1_25</title>
<polygon fill="none" stroke="#000000" points="960,-621.7003 844.7226,-587.4 960,-553.0997 1075.2774,-587.4 960,-621.7003"/>
<text text-anchor="middle" x="960" y="-580.8" font-family="Times,serif" font-size="22.00" fill="#000000">cycles &gt; 0?</text>
</g>
<!-- Node_1_24&#45;&gt;Node_1_25 -->
<g id="edge30" class="edge">
<title>Node_1_24-&gt;Node_1_25</title>
<path fill="none" stroke="#000000" d="M1235.3712,-736.1443C1219.3411,-730.6463 1201.5,-724.7523 1185,-719.8 1122.5345,-701.0517 1098.4344,-717.1577 1043,-682.8 1019.4883,-668.2277 999.0143,-644.8895 984.2834,-624.9444"/>
<polygon fill="#000000" stroke="#000000" points="987.0008,-622.7277 978.3297,-616.6397 981.3117,-626.8063 987.0008,-622.7277"/>
</g>
<!-- Node_1_28 -->
<g id="node27" class="node">
<title>Node_1_28</title>
<path fill="none" stroke="#000000" d="M848.7933,-128.5C848.7933,-128.5 887.2067,-128.5 887.2067,-128.5 893.2067,-128.5 899.2067,-134.5 899.2067,-140.5 899.2067,-140.5 899.2067,-152.5 899.2067,-152.5 899.2067,-158.5 893.2067,-164.5 887.2067,-164.5 887.2067,-164.5 848.7933,-164.5 848.7933,-164.5 842.7933,-164.5 836.7933,-158.5 836.7933,-152.5 836.7933,-152.5 836.7933,-140.5 836.7933,-140.5 836.7933,-134.5 842.7933,-128.5 848.7933,-128.5"/>
<text text-anchor="middle" x="868" y="-139.9" font-family="Times,serif" font-size="22.00" fill="#000000">Dead</text>
</g>
<!-- Node_1_27&#45;&gt;Node_1_28 -->
<g id="edge31" class="edge">
<title>Node_1_27-&gt;Node_1_28</title>
<path fill="none" stroke="#000000" d="M868,-240.0055C868,-222.2282 868,-195.1184 868,-174.6587"/>
<polygon fill="#000000" stroke="#000000" points="871.5001,-174.6503 868,-164.6504 864.5001,-174.6504 871.5001,-174.6503"/>
</g>
<!-- Node_1_16 -->
<g id="node28" class="node">
<title>Node_1_16</title>
<path fill="none" stroke="#000000" d="M948.3235,-418.5C948.3235,-418.5 1293.6765,-418.5 1293.6765,-418.5 1299.6765,-418.5 1305.6765,-424.5 1305.6765,-430.5 1305.6765,-430.5 1305.6765,-442.5 1305.6765,-442.5 1305.6765,-448.5 1299.6765,-454.5 1293.6765,-454.5 1293.6765,-454.5 948.3235,-454.5 948.3235,-454.5 942.3235,-454.5 936.3235,-448.5 936.3235,-442.5 936.3235,-442.5 936.3235,-430.5 936.3235,-430.5 936.3235,-424.5 942.3235,-418.5 948.3235,-418.5"/>
<text text-anchor="middle" x="1121" y="-429.9" font-family="Times,serif" font-size="22.00" fill="#000000">printf((const void *)"Standard Case\n");</text>
</g>
<!-- Node_1_15&#45;&gt;Node_1_16 -->
<g id="edge32" class="edge">
<title>Node_1_15-&gt;Node_1_16</title>
<path fill="none" stroke="#000000" d="M1119.3875,-569.1137C1117.8925,-549.9118 1116.0341,-518.8374 1117,-492 1117.3162,-483.2147 1117.913,-473.6623 1118.551,-464.9983"/>
<polygon fill="#000000" stroke="#000000" points="1122.0439,-465.2243 1119.3335,-454.982 1115.0652,-464.679 1122.0439,-465.2243"/>
</g>
<!-- Node_1_25&#45;&gt;Node_1_16 -->
<g id="edge33" class="edge">
<title>Node_1_25-&gt;Node_1_16</title>
<path fill="none" stroke="#ff0000" d="M1010.0314,-567.7609C1048.3976,-549.7183 1098.6148,-518.9149 1122,-474 1123.4568,-471.2019 1124.3266,-468.1202 1124.7792,-464.9623"/>
<polygon fill="#ff0000" stroke="#ff0000" points="1128.2804,-464.947 1125.012,-454.8689 1121.2823,-464.7856 1128.2804,-464.947"/>
<text text-anchor="middle" x="1124.547" y="-498" font-family="Times,serif" font-size="20.00" fill="#000000">true</text>
</g>
<!-- Node_1_26 -->
<g id="node29" class="node">
<title>Node_1_26</title>
<path fill="none" stroke="#000000" d="M853.8282,-418.5C853.8282,-418.5 886.1718,-418.5 886.1718,-418.5 892.1718,-418.5 898.1718,-424.5 898.1718,-430.5 898.1718,-430.5 898.1718,-442.5 898.1718,-442.5 898.1718,-448.5 892.1718,-454.5 886.1718,-454.5 886.1718,-454.5 853.8282,-454.5 853.8282,-454.5 847.8282,-454.5 841.8282,-448.5 841.8282,-442.5 841.8282,-442.5 841.8282,-430.5 841.8282,-430.5 841.8282,-424.5 847.8282,-418.5 853.8282,-418.5"/>
<text text-anchor="middle" x="870" y="-429.9" font-family="Times,serif" font-size="22.00" fill="#000000">Skip</text>
</g>
<!-- Node_1_25&#45;&gt;Node_1_26 -->
<g id="edge34" class="edge">
<title>Node_1_25-&gt;Node_1_26</title>
<path fill="none" stroke="#000000" d="M942.4334,-557.9467C926.0513,-530.4793 901.8252,-489.8602 885.9764,-463.2871"/>
<polygon fill="#000000" stroke="#000000" points="888.8748,-461.3139 880.7465,-454.5183 882.8629,-464.8996 888.8748,-461.3139"/>
<text text-anchor="middle" x="934.875" y="-498" font-family="Times,serif" font-size="20.00" fill="#000000">false</text>
</g>
<!-- Node_1_29 -->
<g id="node30" class="node">
<title>Node_1_29</title>
<path fill="none" stroke="#000000" d="M800.5066,-16.5C800.5066,-16.5 935.4934,-16.5 935.4934,-16.5 941.4934,-16.5 947.4934,-22.5 947.4934,-28.5 947.4934,-28.5 947.4934,-40.5 947.4934,-40.5 947.4934,-46.5 941.4934,-52.5 935.4934,-52.5 935.4934,-52.5 800.5066,-52.5 800.5066,-52.5 794.5066,-52.5 788.5066,-46.5 788.5066,-40.5 788.5066,-40.5 788.5066,-28.5 788.5066,-28.5 788.5066,-22.5 794.5066,-16.5 800.5066,-16.5"/>
<text text-anchor="middle" x="868" y="-27.9" font-family="Times,serif" font-size="22.00" fill="#000000">End of Function</text>
</g>
<!-- Node_1_28&#45;&gt;Node_1_29 -->
<g id="edge35" class="edge">
<title>Node_1_28-&gt;Node_1_29</title>
<path fill="none" stroke="#000000" d="M868,-128.0055C868,-110.2282 868,-83.1184 868,-62.6587"/>
<polygon fill="#000000" stroke="#000000" points="871.5001,-62.6503 868,-52.6504 864.5001,-62.6504 871.5001,-62.6503"/>
</g>
<!-- Node_1_16&#45;&gt;Node_1_17 -->
<g id="edge36" class="edge">
<title>Node_1_16-&gt;Node_1_17</title>
<path fill="none" stroke="#000000" d="M1076.3503,-454.5999C996.4135,-487.0247 837.0324,-551.7756 836,-553 817.4917,-574.9507 789,-778.3878 789,-807.1 789,-1865.6 789,-1865.6 789,-1865.6 789,-1944.5765 1063.2304,-1900.846 1141,-1914.6 1164.3794,-1918.7348 1189.5436,-1923.8355 1212.8363,-1928.831"/>
<polygon fill="#000000" stroke="#000000" points="1212.1799,-1932.2698 1222.6937,-1930.9623 1213.6593,-1925.4279 1212.1799,-1932.2698"/>
</g>
<!-- Node_1_16&#45;&gt;Node_4_0 -->
<g id="edge59" class="edge">
<title>Node_1_16-&gt;Node_4_0</title>
<path fill="none" stroke="#0000ff" d="M1246.0445,-418.4824C1291.9146,-412.0616 1344.2791,-404.9518 1392,-399 1407.9747,-397.0076 1449.8504,-398.6779 1464,-391 1465.7305,-390.061 1467.423,-389.0314 1469.0758,-387.9251"/>
<polygon fill="#0000ff" stroke="#0000ff" points="1471.2172,-390.6936 1477.0033,-381.8182 1466.9454,-385.1482 1471.2172,-390.6936"/>
</g>
<!-- Node_1_26&#45;&gt;Node_1_27 -->
<g id="edge37" class="edge">
<title>Node_1_26-&gt;Node_1_27</title>
<path fill="none" stroke="#000000" d="M869.7972,-418.4528C869.4483,-387.4016 868.732,-323.6524 868.3168,-286.698"/>
<polygon fill="#000000" stroke="#000000" points="871.8155,-286.5549 868.2033,-276.5949 864.816,-286.6336 871.8155,-286.5549"/>
</g>
<!-- Node_2_30 -->
<g id="node31" class="node">
<title>Node_2_30</title>
<path fill="none" stroke="#000000" d="M1891.8282,-2509.5C1891.8282,-2509.5 1924.1718,-2509.5 1924.1718,-2509.5 1930.1718,-2509.5 1936.1718,-2515.5 1936.1718,-2521.5 1936.1718,-2521.5 1936.1718,-2533.5 1936.1718,-2533.5 1936.1718,-2539.5 1930.1718,-2545.5 1924.1718,-2545.5 1924.1718,-2545.5 1891.8282,-2545.5 1891.8282,-2545.5 1885.8282,-2545.5 1879.8282,-2539.5 1879.8282,-2533.5 1879.8282,-2533.5 1879.8282,-2521.5 1879.8282,-2521.5 1879.8282,-2515.5 1885.8282,-2509.5 1891.8282,-2509.5"/>
<text text-anchor="middle" x="1908" y="-2520.9" font-family="Times,serif" font-size="22.00" fill="#000000">Skip</text>
</g>
<!-- Node_2_31 -->
<g id="node32" class="node">
<title>Node_2_31</title>
<path fill="none" stroke="#000000" d="M1747.5489,-2397.5C1747.5489,-2397.5 2068.4511,-2397.5 2068.4511,-2397.5 2074.4511,-2397.5 2080.4511,-2403.5 2080.4511,-2409.5 2080.4511,-2409.5 2080.4511,-2421.5 2080.4511,-2421.5 2080.4511,-2427.5 2074.4511,-2433.5 2068.4511,-2433.5 2068.4511,-2433.5 1747.5489,-2433.5 1747.5489,-2433.5 1741.5489,-2433.5 1735.5489,-2427.5 1735.5489,-2421.5 1735.5489,-2421.5 1735.5489,-2409.5 1735.5489,-2409.5 1735.5489,-2403.5 1741.5489,-2397.5 1747.5489,-2397.5"/>
<text text-anchor="middle" x="1908" y="-2408.9" font-family="Times,serif" font-size="22.00" fill="#000000">__CPROVER_dead_object = NULL;</text>
</g>
<!-- Node_2_30&#45;&gt;Node_2_31 -->
<g id="edge38" class="edge">
<title>Node_2_30-&gt;Node_2_31</title>
<path fill="none" stroke="#000000" d="M1908,-2509.0055C1908,-2491.2282 1908,-2464.1184 1908,-2443.6587"/>
<polygon fill="#000000" stroke="#000000" points="1911.5001,-2443.6503 1908,-2433.6504 1904.5001,-2443.6504 1911.5001,-2443.6503"/>
</g>
<!-- Node_2_32 -->
<g id="node33" class="node">
<title>Node_2_32</title>
<path fill="none" stroke="#000000" d="M1750.6091,-2238.1C1750.6091,-2238.1 2065.3909,-2238.1 2065.3909,-2238.1 2071.3909,-2238.1 2077.3909,-2244.1 2077.3909,-2250.1 2077.3909,-2250.1 2077.3909,-2262.1 2077.3909,-2262.1 2077.3909,-2268.1 2071.3909,-2274.1 2065.3909,-2274.1 2065.3909,-2274.1 1750.6091,-2274.1 1750.6091,-2274.1 1744.6091,-2274.1 1738.6091,-2268.1 1738.6091,-2262.1 1738.6091,-2262.1 1738.6091,-2250.1 1738.6091,-2250.1 1738.6091,-2244.1 1744.6091,-2238.1 1750.6091,-2238.1"/>
<text text-anchor="middle" x="1908" y="-2249.5" font-family="Times,serif" font-size="22.00" fill="#000000">__CPROVER_deallocated = NULL;</text>
</g>
<!-- Node_2_31&#45;&gt;Node_2_32 -->
<g id="edge39" class="edge">
<title>Node_2_31-&gt;Node_2_32</title>
<path fill="none" stroke="#000000" d="M1908,-2397.2148C1908,-2369.5899 1908,-2316.9878 1908,-2284.3936"/>
<polygon fill="#000000" stroke="#000000" points="1911.5001,-2284.1719 1908,-2274.172 1904.5001,-2284.172 1911.5001,-2284.1719"/>
</g>
<!-- Node_2_33 -->
<g id="node34" class="node">
<title>Node_2_33</title>
<path fill="none" stroke="#000000" d="M1556.2765,-2097.8C1556.2765,-2097.8 2259.7235,-2097.8 2259.7235,-2097.8 2265.7235,-2097.8 2271.7235,-2103.8 2271.7235,-2109.8 2271.7235,-2109.8 2271.7235,-2121.8 2271.7235,-2121.8 2271.7235,-2127.8 2265.7235,-2133.8 2259.7235,-2133.8 2259.7235,-2133.8 1556.2765,-2133.8 1556.2765,-2133.8 1550.2765,-2133.8 1544.2765,-2127.8 1544.2765,-2121.8 1544.2765,-2121.8 1544.2765,-2109.8 1544.2765,-2109.8 1544.2765,-2103.8 1550.2765,-2097.8 1556.2765,-2097.8"/>
<text text-anchor="middle" x="1908" y="-2109.2" font-family="Times,serif" font-size="22.00" fill="#000000">__CPROVER_max_malloc_size = (__CPROVER_size_t)36028797018963968l;</text>
</g>
<!-- Node_2_32&#45;&gt;Node_2_33 -->
<g id="edge40" class="edge">
<title>Node_2_32-&gt;Node_2_33</title>
<path fill="none" stroke="#000000" d="M1908,-2238.0455C1908,-2214.3937 1908,-2172.6413 1908,-2144.5989"/>
<polygon fill="#000000" stroke="#000000" points="1911.5001,-2144.2307 1908,-2134.2308 1904.5001,-2144.2308 1911.5001,-2144.2307"/>
</g>
<!-- Node_2_34 -->
<g id="node35" class="node">
<title>Node_2_34</title>
<path fill="none" stroke="#000000" d="M1740.213,-1931C1740.213,-1931 2075.787,-1931 2075.787,-1931 2081.787,-1931 2087.787,-1937 2087.787,-1943 2087.787,-1943 2087.787,-1955 2087.787,-1955 2087.787,-1961 2081.787,-1967 2075.787,-1967 2075.787,-1967 1740.213,-1967 1740.213,-1967 1734.213,-1967 1728.213,-1961 1728.213,-1955 1728.213,-1955 1728.213,-1943 1728.213,-1943 1728.213,-1937 1734.213,-1931 1740.213,-1931"/>
<text text-anchor="middle" x="1908" y="-1942.4" font-family="Times,serif" font-size="22.00" fill="#000000">__CPROVER_memory_leak = NULL;</text>
</g>
<!-- Node_2_33&#45;&gt;Node_2_34 -->
<g id="edge41" class="edge">
<title>Node_2_33-&gt;Node_2_34</title>
<path fill="none" stroke="#000000" d="M1908,-2097.632C1908,-2068.6799 1908,-2011.8439 1908,-1977.4574"/>
<polygon fill="#000000" stroke="#000000" points="1911.5001,-1977.1456 1908,-1967.1456 1904.5001,-1977.1457 1911.5001,-1977.1456"/>
</g>
<!-- Node_2_35 -->
<g id="node36" class="node">
<title>Node_2_35</title>
<path fill="none" stroke="#000000" d="M1754.8573,-1764.2C1754.8573,-1764.2 2061.1427,-1764.2 2061.1427,-1764.2 2067.1427,-1764.2 2073.1427,-1770.2 2073.1427,-1776.2 2073.1427,-1776.2 2073.1427,-1788.2 2073.1427,-1788.2 2073.1427,-1794.2 2067.1427,-1800.2 2061.1427,-1800.2 2061.1427,-1800.2 1754.8573,-1800.2 1754.8573,-1800.2 1748.8573,-1800.2 1742.8573,-1794.2 1742.8573,-1788.2 1742.8573,-1788.2 1742.8573,-1776.2 1742.8573,-1776.2 1742.8573,-1770.2 1748.8573,-1764.2 1754.8573,-1764.2"/>
<text text-anchor="middle" x="1908" y="-1775.6" font-family="Times,serif" font-size="22.00" fill="#000000">__CPROVER_rounding_mode = 0;</text>
</g>
<!-- Node_2_34&#45;&gt;Node_2_35 -->
<g id="edge42" class="edge">
<title>Node_2_34-&gt;Node_2_35</title>
<path fill="none" stroke="#000000" d="M1908,-1930.832C1908,-1901.8799 1908,-1845.0439 1908,-1810.6574"/>
<polygon fill="#000000" stroke="#000000" points="1911.5001,-1810.3456 1908,-1800.3456 1904.5001,-1810.3457 1911.5001,-1810.3456"/>
</g>
<!-- Node_2_36 -->
<g id="node37" class="node">
<title>Node_2_36</title>
<path fill="none" stroke="#000000" d="M1840.5066,-1554.4C1840.5066,-1554.4 1975.4934,-1554.4 1975.4934,-1554.4 1981.4934,-1554.4 1987.4934,-1560.4 1987.4934,-1566.4 1987.4934,-1566.4 1987.4934,-1578.4 1987.4934,-1578.4 1987.4934,-1584.4 1981.4934,-1590.4 1975.4934,-1590.4 1975.4934,-1590.4 1840.5066,-1590.4 1840.5066,-1590.4 1834.5066,-1590.4 1828.5066,-1584.4 1828.5066,-1578.4 1828.5066,-1578.4 1828.5066,-1566.4 1828.5066,-1566.4 1828.5066,-1560.4 1834.5066,-1554.4 1840.5066,-1554.4"/>
<text text-anchor="middle" x="1908" y="-1565.8" font-family="Times,serif" font-size="22.00" fill="#000000">End of Function</text>
</g>
<!-- Node_2_35&#45;&gt;Node_2_36 -->
<g id="edge43" class="edge">
<title>Node_2_35-&gt;Node_2_36</title>
<path fill="none" stroke="#000000" d="M1908,-1763.9486C1908,-1727.2786 1908,-1644.4352 1908,-1600.6878"/>
<polygon fill="#000000" stroke="#000000" points="1911.5001,-1600.4597 1908,-1590.4598 1904.5001,-1600.4598 1911.5001,-1600.4597"/>
</g>
<!-- Node_3_37 -->
<g id="node38" class="node">
<title>Node_3_37</title>
<path fill="none" stroke="#000000" d="M309.8282,-2509.5C309.8282,-2509.5 342.1718,-2509.5 342.1718,-2509.5 348.1718,-2509.5 354.1718,-2515.5 354.1718,-2521.5 354.1718,-2521.5 354.1718,-2533.5 354.1718,-2533.5 354.1718,-2539.5 348.1718,-2545.5 342.1718,-2545.5 342.1718,-2545.5 309.8282,-2545.5 309.8282,-2545.5 303.8282,-2545.5 297.8282,-2539.5 297.8282,-2533.5 297.8282,-2533.5 297.8282,-2521.5 297.8282,-2521.5 297.8282,-2515.5 303.8282,-2509.5 309.8282,-2509.5"/>
<text text-anchor="middle" x="326" y="-2520.9" font-family="Times,serif" font-size="22.00" fill="#000000">Skip</text>
</g>
<!-- Node_3_38 -->
<g id="node39" class="node">
<title>Node_3_38</title>
<path fill="none" stroke="#000000" d="M213.9049,-2397.5C213.9049,-2397.5 438.0951,-2397.5 438.0951,-2397.5 444.0951,-2397.5 450.0951,-2403.5 450.0951,-2409.5 450.0951,-2409.5 450.0951,-2421.5 450.0951,-2421.5 450.0951,-2427.5 444.0951,-2433.5 438.0951,-2433.5 438.0951,-2433.5 213.9049,-2433.5 213.9049,-2433.5 207.9049,-2433.5 201.9049,-2427.5 201.9049,-2421.5 201.9049,-2421.5 201.9049,-2409.5 201.9049,-2409.5 201.9049,-2403.5 207.9049,-2397.5 213.9049,-2397.5"/>
<text text-anchor="middle" x="326" y="-2408.9" font-family="Times,serif" font-size="22.00" fill="#000000">__CPROVER_initialize();</text>
</g>
<!-- Node_3_37&#45;&gt;Node_3_38 -->
<g id="edge44" class="edge">
<title>Node_3_37-&gt;Node_3_38</title>
<path fill="none" stroke="#000000" d="M326,-2509.0055C326,-2491.2282 326,-2464.1184 326,-2443.6587"/>
<polygon fill="#000000" stroke="#000000" points="329.5001,-2443.6503 326,-2433.6504 322.5001,-2443.6504 329.5001,-2443.6503"/>
</g>
<!-- Node_3_39 -->
<g id="node40" class="node">
<title>Node_3_39</title>
<path fill="none" stroke="#000000" d="M251.6808,-2225.7C251.6808,-2225.7 350.3192,-2225.7 350.3192,-2225.7 356.3192,-2225.7 362.3192,-2231.7 362.3192,-2237.7 362.3192,-2237.7 362.3192,-2274.5 362.3192,-2274.5 362.3192,-2280.5 356.3192,-2286.5 350.3192,-2286.5 350.3192,-2286.5 251.6808,-2286.5 251.6808,-2286.5 245.6808,-2286.5 239.6808,-2280.5 239.6808,-2274.5 239.6808,-2274.5 239.6808,-2237.7 239.6808,-2237.7 239.6808,-2231.7 245.6808,-2225.7 251.6808,-2225.7"/>
<text text-anchor="middle" x="301" y="-2262.7" font-family="Times,serif" font-size="22.00" fill="#000000">Assume</text>
<text text-anchor="middle" x="301" y="-2236.3" font-family="Times,serif" font-size="22.00" fill="#000000">(argc' &gt;= 0)</text>
</g>
<!-- Node_3_38&#45;&gt;Node_3_39 -->
<g id="edge45" class="edge">
<title>Node_3_38-&gt;Node_3_39</title>
<path fill="none" stroke="#000000" d="M323.1322,-2397.2148C319.3131,-2372.8641 312.4502,-2329.1062 307.3757,-2296.7515"/>
<polygon fill="#000000" stroke="#000000" points="310.8044,-2296.0234 305.7971,-2286.6865 303.8889,-2297.1081 310.8044,-2296.0234"/>
</g>
<!-- Node_2_0 -->
<g id="node48" class="node">
<title>Node_2_0</title>
<ellipse fill="none" stroke="#000000" cx="523" cy="-2342" rx="51.0319" ry="18"/>
<text text-anchor="middle" x="523" y="-2337.8" font-family="Times,serif" font-size="14.00" fill="#000000">Node_2_0</text>
</g>
<!-- Node_3_38&#45;&gt;Node_2_0 -->
<g id="edge60" class="edge">
<title>Node_3_38-&gt;Node_2_0</title>
<path fill="none" stroke="#0000ff" d="M374.4439,-2397.4257C406.1063,-2385.6126 447.1669,-2370.293 478.0935,-2358.7545"/>
<polygon fill="#0000ff" stroke="#0000ff" points="479.608,-2361.9251 487.7537,-2355.1503 477.1611,-2355.3667 479.608,-2361.9251"/>
</g>
<!-- Node_3_40 -->
<g id="node41" class="node">
<title>Node_3_40</title>
<path fill="none" stroke="#000000" d="M155.2497,-2097.8C155.2497,-2097.8 344.7503,-2097.8 344.7503,-2097.8 350.7503,-2097.8 356.7503,-2103.8 356.7503,-2109.8 356.7503,-2109.8 356.7503,-2121.8 356.7503,-2121.8 356.7503,-2127.8 350.7503,-2133.8 344.7503,-2133.8 344.7503,-2133.8 155.2497,-2133.8 155.2497,-2133.8 149.2497,-2133.8 143.2497,-2127.8 143.2497,-2121.8 143.2497,-2121.8 143.2497,-2109.8 143.2497,-2109.8 143.2497,-2103.8 149.2497,-2097.8 155.2497,-2097.8"/>
<text text-anchor="middle" x="250" y="-2109.2" font-family="Times,serif" font-size="22.00" fill="#000000">INPUT("argc", argc');</text>
</g>
<!-- Node_3_39&#45;&gt;Node_3_40 -->
<g id="edge46" class="edge">
<title>Node_3_39-&gt;Node_3_40</title>
<path fill="none" stroke="#000000" d="M289.9338,-2225.657C281.0644,-2201.2576 268.7214,-2167.3023 260.1139,-2143.6232"/>
<polygon fill="#000000" stroke="#000000" points="263.3806,-2142.3646 256.6747,-2134.162 256.8017,-2144.7561 263.3806,-2142.3646"/>
</g>
<!-- Node_3_41 -->
<g id="node42" class="node">
<title>Node_3_41</title>
<path fill="none" stroke="#000000" d="M28.261,-1918.6C28.261,-1918.6 443.739,-1918.6 443.739,-1918.6 449.739,-1918.6 455.739,-1924.6 455.739,-1930.6 455.739,-1930.6 455.739,-1967.4 455.739,-1967.4 455.739,-1973.4 449.739,-1979.4 443.739,-1979.4 443.739,-1979.4 28.261,-1979.4 28.261,-1979.4 22.261,-1979.4 16.261,-1973.4 16.261,-1967.4 16.261,-1967.4 16.261,-1930.6 16.261,-1930.6 16.261,-1924.6 22.261,-1918.6 28.261,-1918.6"/>
<text text-anchor="middle" x="236" y="-1955.6" font-family="Times,serif" font-size="22.00" fill="#000000">/* disable:bounds-check */</text>
<text text-anchor="middle" x="236" y="-1929.2" font-family="Times,serif" font-size="22.00" fill="#000000">argv'[(signed long int)argc'] = ((char *)NULL);</text>
</g>
<!-- Node_3_40&#45;&gt;Node_3_41 -->
<g id="edge47" class="edge">
<title>Node_3_40-&gt;Node_3_41</title>
<path fill="none" stroke="#000000" d="M248.4751,-2097.632C246.3171,-2071.9214 242.3135,-2024.2213 239.4229,-1989.7809"/>
<polygon fill="#000000" stroke="#000000" points="242.889,-1989.2295 238.5648,-1979.5573 235.9135,-1989.815 242.889,-1989.2295"/>
</g>
<!-- Node_3_42 -->
<g id="node43" class="node">
<title>Node_3_42</title>
<path fill="none" stroke="#000000" d="M183.1979,-1764.2C183.1979,-1764.2 414.8021,-1764.2 414.8021,-1764.2 420.8021,-1764.2 426.8021,-1770.2 426.8021,-1776.2 426.8021,-1776.2 426.8021,-1788.2 426.8021,-1788.2 426.8021,-1794.2 420.8021,-1800.2 414.8021,-1800.2 414.8021,-1800.2 183.1979,-1800.2 183.1979,-1800.2 177.1979,-1800.2 171.1979,-1794.2 171.1979,-1788.2 171.1979,-1788.2 171.1979,-1776.2 171.1979,-1776.2 171.1979,-1770.2 177.1979,-1764.2 183.1979,-1764.2"/>
<text text-anchor="middle" x="299" y="-1775.6" font-family="Times,serif" font-size="22.00" fill="#000000">return'=main(argc', argv');</text>
</g>
<!-- Node_3_41&#45;&gt;Node_3_42 -->
<g id="edge48" class="edge">
<title>Node_3_41-&gt;Node_3_42</title>
<path fill="none" stroke="#000000" d="M247.5552,-1918.4063C259.2998,-1887.3109 277.3285,-1839.5779 288.6279,-1809.6615"/>
<polygon fill="#000000" stroke="#000000" points="291.9239,-1810.8404 292.183,-1800.2487 285.3754,-1808.367 291.9239,-1810.8404"/>
</g>
<!-- Node_3_42&#45;&gt;Node_0_0 -->
<g id="edge61" class="edge">
<title>Node_3_42-&gt;Node_0_0</title>
<path fill="none" stroke="#0000ff" d="M357.2094,-1764.0945C387.7287,-1753.9125 425.6983,-1740.1619 462.6364,-1723.241"/>
<polygon fill="#0000ff" stroke="#0000ff" points="464.4185,-1726.2717 472.0001,-1718.871 461.4581,-1719.9285 464.4185,-1726.2717"/>
</g>
<!-- Node_3_43 -->
<g id="node44" class="node">
<title>Node_3_43</title>
<path fill="none" stroke="#000000" d="M174.9171,-1554.4C174.9171,-1554.4 423.0829,-1554.4 423.0829,-1554.4 429.0829,-1554.4 435.0829,-1560.4 435.0829,-1566.4 435.0829,-1566.4 435.0829,-1578.4 435.0829,-1578.4 435.0829,-1584.4 429.0829,-1590.4 423.0829,-1590.4 423.0829,-1590.4 174.9171,-1590.4 174.9171,-1590.4 168.9171,-1590.4 162.9171,-1584.4 162.9171,-1578.4 162.9171,-1578.4 162.9171,-1566.4 162.9171,-1566.4 162.9171,-1560.4 168.9171,-1554.4 174.9171,-1554.4"/>
<text text-anchor="middle" x="299" y="-1565.8" font-family="Times,serif" font-size="22.00" fill="#000000">OUTPUT("return'", return');</text>
</g>
<!-- Node_3_42&#45;&gt;Node_3_43 -->
<g id="edge49" class="edge">
<title>Node_3_42-&gt;Node_3_43</title>
<path fill="none" stroke="#000000" d="M299,-1763.9486C299,-1727.2786 299,-1644.4352 299,-1600.6878"/>
<polygon fill="#000000" stroke="#000000" points="302.5001,-1600.4597 299,-1590.4598 295.5001,-1600.4598 302.5001,-1600.4597"/>
</g>
<!-- Node_3_44 -->
<g id="node45" class="node">
<title>Node_3_44</title>
<path fill="none" stroke="#000000" d="M231.5066,-1374.6C231.5066,-1374.6 366.4934,-1374.6 366.4934,-1374.6 372.4934,-1374.6 378.4934,-1380.6 378.4934,-1386.6 378.4934,-1386.6 378.4934,-1398.6 378.4934,-1398.6 378.4934,-1404.6 372.4934,-1410.6 366.4934,-1410.6 366.4934,-1410.6 231.5066,-1410.6 231.5066,-1410.6 225.5066,-1410.6 219.5066,-1404.6 219.5066,-1398.6 219.5066,-1398.6 219.5066,-1386.6 219.5066,-1386.6 219.5066,-1380.6 225.5066,-1374.6 231.5066,-1374.6"/>
<text text-anchor="middle" x="299" y="-1386" font-family="Times,serif" font-size="22.00" fill="#000000">End of Function</text>
</g>
<!-- Node_3_43&#45;&gt;Node_3_44 -->
<g id="edge50" class="edge">
<title>Node_3_43-&gt;Node_3_44</title>
<path fill="none" stroke="#000000" d="M299,-1554.1703C299,-1522.7239 299,-1458.0774 299,-1420.7936"/>
<polygon fill="#000000" stroke="#000000" points="302.5001,-1420.6105 299,-1410.6106 295.5001,-1420.6106 302.5001,-1420.6105"/>
</g>
</g>
</svg>