<?xml version="1.0" encoding="UTF-8" standalone="no"?><!DOCTYPE svg PUBLIC "-//W3C//DTD SVG 1.1//EN" "http://www.w3.org/Graphics/SVG/1.1/DTD/svg11.dtd"><!-- Generated by graphviz version 2.40.1 (20161225.0304)
 --><!-- Title: G Pages: 1 --><svg xmlns="http://www.w3.org/2000/svg" xmlns:xlink="http://www.w3.org/1999/xlink" width="936pt" height="612pt" viewBox="0.00 0.00 936.00 611.80">
<g id="graph0" class="graph" transform="scale(1 1) rotate(0) translate(4 607.8)">
<title>G</title>
<polygon fill="#ffffff" stroke="transparent" points="-4,4 -4,-607.8 932,-607.8 932,4 -4,4"/>
<g id="clust1" class="cluster">
<title>cluster_main</title>
<polygon fill="none" stroke="#000000" points="8,-8 8,-595.8 920,-595.8 920,-8 8,-8"/>
<text text-anchor="middle" x="464" y="-573.8" font-family="Times,serif" font-size="20.00" fill="#000000">Workflow For CBMC Algorithms </text>
</g>
<!-- Node_0_0 -->
<g id="node1" class="node">
<title>Node_0_0</title>
<path fill="none" stroke="#000000" d="M268.6703,-519.3C268.6703,-519.3 509.3297,-519.3 509.3297,-519.3 515.3297,-519.3 521.3297,-525.3 521.3297,-531.3 521.3297,-531.3 521.3297,-543.3 521.3297,-543.3 521.3297,-549.3 515.3297,-555.3 509.3297,-555.3 509.3297,-555.3 268.6703,-555.3 268.6703,-555.3 262.6703,-555.3 256.6703,-549.3 256.6703,-543.3 256.6703,-543.3 256.6703,-531.3 256.6703,-531.3 256.6703,-525.3 262.6703,-519.3 268.6703,-519.3"/>
<text text-anchor="middle" x="389" y="-530.7" font-family="Times,serif" font-size="22.00" fill="#000000">goto-cc main.c -o main.goto</text>
</g>
<!-- Node_0_1 -->
<g id="node2" class="node">
<title>Node_0_1</title>
<path fill="none" stroke="#000000" d="M201.0401,-407.3C201.0401,-407.3 576.9599,-407.3 576.9599,-407.3 582.9599,-407.3 588.9599,-413.3 588.9599,-419.3 588.9599,-419.3 588.9599,-431.3 588.9599,-431.3 588.9599,-437.3 582.9599,-443.3 576.9599,-443.3 576.9599,-443.3 201.0401,-443.3 201.0401,-443.3 195.0401,-443.3 189.0401,-437.3 189.0401,-431.3 189.0401,-431.3 189.0401,-419.3 189.0401,-419.3 189.0401,-413.3 195.0401,-407.3 201.0401,-407.3"/>
<text text-anchor="middle" x="389" y="-418.7" font-family="Times,serif" font-size="22.00" fill="#000000">goto-instrument --dot main.goto &gt; main.dot</text>
</g>
<!-- Node_0_0&#45;&gt;Node_0_1 -->
<g id="edge1" class="edge">
<title>Node_0_0-&gt;Node_0_1</title>
<path fill="none" stroke="#000000" d="M389,-518.8055C389,-501.0282 389,-473.9184 389,-453.4587"/>
<polygon fill="#000000" stroke="#000000" points="392.5001,-453.4503 389,-443.4504 385.5001,-453.4504 392.5001,-453.4503"/>
</g>
<!-- Node_0_2 -->
<g id="node3" class="node">
<title>Node_0_2</title>
<polygon fill="none" stroke="#000000" points="389,-331.7003 230.7671,-297.4 389,-263.0997 547.2329,-297.4 389,-331.7003"/>
<text text-anchor="middle" x="389" y="-290.8" font-family="Times,serif" font-size="22.00" fill="#000000">Algorithm Type</text>
</g>
<!-- Node_0_1&#45;&gt;Node_0_2 -->
<g id="edge2" class="edge">
<title>Node_0_1-&gt;Node_0_2</title>
<path fill="none" stroke="#000000" d="M389,-407.2463C389,-390.2877 389,-364.2278 389,-341.7463"/>
<polygon fill="#000000" stroke="#000000" points="392.5001,-341.7142 389,-331.7143 385.5001,-341.7143 392.5001,-341.7142"/>
</g>
<!-- Node_0_3 -->
<g id="node4" class="node">
<title>Node_0_3</title>
<path fill="none" stroke="#000000" d="M27.9067,-128.5C27.9067,-128.5 442.0933,-128.5 442.0933,-128.5 448.0933,-128.5 454.0933,-134.5 454.0933,-140.5 454.0933,-140.5 454.0933,-152.5 454.0933,-152.5 454.0933,-158.5 448.0933,-164.5 442.0933,-164.5 442.0933,-164.5 27.9067,-164.5 27.9067,-164.5 21.9067,-164.5 15.9067,-158.5 15.9067,-152.5 15.9067,-152.5 15.9067,-140.5 15.9067,-140.5 15.9067,-134.5 21.9067,-128.5 27.9067,-128.5"/>
<text text-anchor="middle" x="235" y="-139.9" font-family="Times,serif" font-size="22.00" fill="#000000">goto-instrument --show-lexical-loops main.goto</text>
</g>
<!-- Node_0_2&#45;&gt;Node_0_3 -->
<g id="edge3" class="edge">
<title>Node_0_2-&gt;Node_0_3</title>
<path fill="none" stroke="#000000" d="M360.0338,-269.0169C331.5222,-241.0792 288.3812,-198.8066 260.9575,-171.935"/>
<polygon fill="#000000" stroke="#000000" points="263.2569,-169.2879 253.6647,-164.7889 258.3577,-174.2877 263.2569,-169.2879"/>
<text text-anchor="middle" x="375.921" y="-208" font-family="Times,serif" font-size="20.00" fill="#000000">Lexical Loops?</text>
</g>
<!-- Node_0_4 -->
<g id="node5" class="node">
<title>Node_0_4</title>
<path fill="none" stroke="#000000" d="M483.6846,-128.5C483.6846,-128.5 900.3154,-128.5 900.3154,-128.5 906.3154,-128.5 912.3154,-134.5 912.3154,-140.5 912.3154,-140.5 912.3154,-152.5 912.3154,-152.5 912.3154,-158.5 906.3154,-164.5 900.3154,-164.5 900.3154,-164.5 483.6846,-164.5 483.6846,-164.5 477.6846,-164.5 471.6846,-158.5 471.6846,-152.5 471.6846,-152.5 471.6846,-140.5 471.6846,-140.5 471.6846,-134.5 477.6846,-128.5 483.6846,-128.5"/>
<text text-anchor="middle" x="692" y="-139.9" font-family="Times,serif" font-size="22.00" fill="#000000">goto-instrument --show-natural-loops main.goto</text>
</g>
<!-- Node_0_2&#45;&gt;Node_0_4 -->
<g id="edge4" class="edge">
<title>Node_0_2-&gt;Node_0_4</title>
<path fill="none" stroke="#000000" d="M437.0113,-273.4894C494.549,-244.8345 590.2347,-197.1811 646.592,-169.1141"/>
<polygon fill="#000000" stroke="#000000" points="648.2342,-172.2063 655.6252,-164.6154 645.1136,-165.9404 648.2342,-172.2063"/>
<text text-anchor="middle" x="641.921" y="-208" font-family="Times,serif" font-size="20.00" fill="#000000">Natural Loops?</text>
</g>
<!-- Node_0_5 -->
<g id="node6" class="node">
<title>Node_0_5</title>
<path fill="none" stroke="#000000" d="M423.9218,-16.5C423.9218,-16.5 502.0782,-16.5 502.0782,-16.5 508.0782,-16.5 514.0782,-22.5 514.0782,-28.5 514.0782,-28.5 514.0782,-40.5 514.0782,-40.5 514.0782,-46.5 508.0782,-52.5 502.0782,-52.5 502.0782,-52.5 423.9218,-52.5 423.9218,-52.5 417.9218,-52.5 411.9218,-46.5 411.9218,-40.5 411.9218,-40.5 411.9218,-28.5 411.9218,-28.5 411.9218,-22.5 417.9218,-16.5 423.9218,-16.5"/>
<text text-anchor="middle" x="463" y="-27.9" font-family="Times,serif" font-size="22.00" fill="#000000">results.txt</text>
</g>
<!-- Node_0_3&#45;&gt;Node_0_5 -->
<g id="edge5" class="edge">
<title>Node_0_3-&gt;Node_0_5</title>
<path fill="none" stroke="#000000" d="M271.8855,-128.3808C311.4553,-108.943 374.3598,-78.0426 417.1017,-57.0465"/>
<polygon fill="#000000" stroke="#000000" points="418.7351,-60.1437 426.1675,-52.5932 415.6487,-53.8608 418.7351,-60.1437"/>
</g>
<!-- Node_0_4&#45;&gt;Node_0_5 -->
<g id="edge6" class="edge">
<title>Node_0_4-&gt;Node_0_5</title>
<path fill="none" stroke="#000000" d="M654.9527,-128.3808C615.2094,-108.943 552.029,-78.0426 509.0996,-57.0465"/>
<polygon fill="#000000" stroke="#000000" points="510.515,-53.8426 499.9941,-52.5932 507.4395,-60.1308 510.515,-53.8426"/>
</g>
</g>
</svg>